<svg height="256" viewBox="0 0 256 256" width="256" xmlns="http://www.w3.org/2000/svg"><path d="m195.2 38.4 22.4 44.8h-33.6l-22.4-44.8h-22.4l22.4 44.8h-33.6l-22.4-44.8h-22.4l22.4 44.8h-33.6l-22.4-44.8h-11.2a22.4 22.4 0 0 0 -22.4 22.4v134.4a22.4 22.4 0 0 0 22.4 22.4h179.2a22.4 22.4 0 0 0 22.4-22.4v-156.8z" fill="#fff"/><rect fill="#f00" height="111.55297" rx="13.702618" ry="14.82331" width="199.57155" x="28.214226" y="95.495514"/><path d="m126.07945 160.40458 33.44081 25.99227c2.75543 2.19372 7.76529 3.9221 11.20957 3.9221h19.4132l-82.09908-63.95028a21.918137 23.266735 0 1 0 -8.704629 13.22879l13.964989 10.83566-13.964989 10.83565a21.918137 23.266735 0 1 0 8.642009 13.2288l18.16074-14.09299zm-39.264779-29.91438a9.3934875 9.9714581 0 1 1 0-19.94291 9.3934875 9.9714581 0 0 1 0 19.94291zm0 59.82875a9.3934893 9.97146 0 1 1 0-19.94292 9.3934893 9.97146 0 0 1 0 19.94292zm72.642969-75.84955a22.106007 23.466165 0 0 1 11.27219-3.92211h19.4132l-46.96743 36.56201-12.83777-9.97146z" stroke-width="6.452106"/></svg>