<svg enable-background="new 0 0 28.158 28.158" viewBox="0 0 28.158 28.158" xmlns="http://www.w3.org/2000/svg"><path d="m21.916731 2.8635255v1.5400296h-1.902444v-1.5400296h-1.175811v.7568009h-9.6374196v-.7568009h-1.3559891v1.574466h-1.9032909v-1.574466h-.7647001v1.2116822 1.1091737 17.1012956 1.109175 2.018936h.6581158v-1.803508h1.9032909v1.803508h1.4625734v-1.564054h9.6365736v1.564054h1.116597v-1.803508h1.904984v1.803508h1.002399v-2.018936-1.109175-17.1012956-1.1091737-1.2116822zm-14.1071918 19.4213515h-1.9032909v-1.804309h1.9032909zm0-3.663076h-1.9032909v-1.803508h1.9032909zm0-3.814436h-1.9032909v-1.803509h1.9032909zm0-3.663077h-1.9032909v-1.8035082h1.9032909zm0-3.5093134h-1.9032909v-1.8043092h1.9032909zm11.0035598 14.6258774h-9.8607393v-7.241262h9.8607393zm0-9.164899h-9.8607393v-7.4134444h9.8607393zm3.046957 9.188924h-1.904982v-1.804309h1.904982zm0-3.663076h-1.904982v-1.803508h1.904982zm0-3.814436h-1.904982v-1.803509h1.904982zm0-3.663077h-1.904982v-1.8035082h1.904982zm0-3.5093134h-1.904982v-1.8043092h1.904982z" fill="#bababa" stroke-width=".823069"/></svg>