<svg height="60" viewBox="0 0 60 60" width="60" xmlns="http://www.w3.org/2000/svg"><g fill="none"><path d="m30.000275 3.3573433c14.72717 0 26.58334 11.8561657 26.58334 26.5833327s-11.85617 26.583333-26.58334 26.583333c-14.72716 0-26.5833295-11.856166-26.5833295-26.583333s11.8561695-26.5833327 26.5833295-26.5833327z" fill="none" stroke="#e5b243" stroke-linejoin="round" stroke-width="4.833"/><g transform="translate(93.508476 478.016951)"><path d="m-838-2232h1400v3600h-1400z"/><path d="m0 0h48v48h-48z"/></g></g><path d="m1049.1429 799.28355s-65.3917-38.57517-202.52003-120.96989c-48.94666-29.36842-84.55601-36.82707-125.99234-5.71053 0 0-53.73773 44.16917-75.36231 64.5639-79.11749 11.30451-369.81922-317.92476-372.15002-412.55632 14.11426-29.6015 67.98148-66.07893 67.98148-66.07893 39.494-25.0564 43.63763-68.75939 30.94775-98.71051-8.28726-19.46241-90.38298-176.09396-100.3536-193.69171-11.65397-20.74435-30.94776-44.518782-76.6572-44.518782-82.22522 0-147.616922 42.770662-147.616922 42.770662-39.494001 24.35715-113.17297 69.57519-113.17297 164.32329 0 120.3872 82.87266 286.10897 307.923702 546.92848 251.20774 288.55641 485.1935 388.08259 593.70489 388.08259 99.44717 0 195.65717-108.61648 226.73437-161.29318 29.9119-50.69546 4.2731-89.62026-13.4668-103.13907z" fill="#e5b243" stroke="#e5b243" stroke-width="1.228445" transform="matrix(.03061224 0 0 .03061224 13.928399 15.325747)"/></svg>