<svg height="60" viewBox="0 0 60 60" width="60" xmlns="http://www.w3.org/2000/svg"><g fill="none"><path d="m30.000275 3.3573433c14.72717 0 26.58334 11.8561657 26.58334 26.5833327s-11.85617 26.583333-26.58334 26.583333c-14.72716 0-26.5833295-11.856166-26.5833295-26.583333s11.8561695-26.5833327 26.5833295-26.5833327z" fill="none" stroke="#f00" stroke-linejoin="round" stroke-width="4.833"/><g transform="translate(93.508476 478.016951)"><path d="m-838-2232h1400v3600h-1400z"/><path d="m0 0h48v48h-48z"/></g></g><g fill="#f00" stroke="#f00" transform="matrix(.03061224 0 0 .03061224 13.71934 14.977315)"><path d="m883.91301 792.15427s-50.5-33.1-156.4-103.8c-37.8-25.2-65.3-31.6-97.3-4.9 0 0-41.5 37.9-58.2 55.4-61.1 9.7-285.6-272.8-287.4-354 10.9-25.4 52.5-56.7 52.5-56.7 30.5-21.5 33.7-59 23.9-84.7-6.4-16.7-69.8-151.100001-77.5-166.200001-9-17.8-23.9-38.2-59.2-38.2-63.5 0-114 36.7-114 36.7-30.500001 20.9-87.400001 59.700001-87.400001 141.000001 0 103.3 64 245.5 237.800001 469.3 194 247.6 374.7 333.00003 458.5 333.00003 76.8 0 151.1-93.20003 175.1-138.40003 23.1-43.5 3.3-76.9-10.4-88.5z" stroke="#f00"/><path d="m665.79309 39.822666h326.66672v326.66672h-326.66672z" stroke="none"/></g></svg>