<svg height="60" viewBox="0 0 60 60" width="60" xmlns="http://www.w3.org/2000/svg"><path d="m30.059323 3.3573433c14.72717 0 26.58333 11.8561657 26.58333 26.5833327 0 14.727168-11.85616 26.583333-26.58333 26.583333s-26.5833306-11.856165-26.5833306-26.583333c0-14.727167 11.8561606-26.5833327 26.5833306-26.5833327z" fill="none" stroke="#bababa" stroke-linejoin="round" stroke-width="4.833"/><path d="m21.74736 49.146542c-.35629-.185532-.61816-.612579-.61859-1.008807 0-.264929-.0515-.322009-.5317-.592542-1.00859-.568231-1.64108-1.477195-1.81629-2.610227-.123-.795328-.11438-28.688979.009-29.394914.20803-1.189563 1.03781-2.288386 2.05641-2.723172l.49943-.213182h8.73428c8.37 0 8.75283.0073 9.17949.174713.98159.385196 1.72594 1.212396 2.03334 2.259699.17311.58979.17497.779295.15197 15.433262l-.0233 14.836138-.28441.614578c-.32886.710641-1.05031 1.453891-1.64382 1.693478-.32531.131319-.37485.18729-.37485.423516 0 .396719-.22051.821668-.54895 1.057846-.27313.196413-.36929.20668-1.9333.206353-1.48903-.000358-1.67287-.01774-1.92912-.182892-.32559-.209835-.62849-.686109-.62897-.988965l-.00093-.207624-3.9725.02389-3.97249.02389-.0573.296256c-.0843.435519-.31566.75842-.64903.905655-.45535.201101-3.28087.1804-3.67908-.02696zm9.86134-6.273375c1.83906-.491335 3.28234-1.732237 4.1137-3.536858.98664-2.141732.79005-4.696538-.51604-6.70612-.21205-.326238-.87376-1.066218-1.2616-1.410781-.35919-.319118-1.36669-.867068-1.99626-1.085706-.60307-.20944-.84507-.241922-1.82506-.244969-1.33367-.0042-1.79455.113282-2.94783.751088-1.92061 1.062165-3.17197 3.125941-3.32688 5.486726-.0861 1.311858.33447 2.886069 1.08143 4.048155.81277 1.264455 2.40589 2.42304 3.75929 2.733918.85756.196983 2.106.18182 2.91925-.03545zm-2.01248-3.299707c-.89901-.155919-1.78219-.881193-2.2222-1.824907-.16548-.35494-.20232-.582732-.20373-1.260048-.001-.71754.0297-.894537.23652-1.339578.31047-.668251.85815-1.250126 1.45541-1.546285.40408-.200367.60143-.237536 1.26122-.237536.67876 0 .84699.03365 1.27246.254509 1.16705.605811 1.87357 2.028735 1.64795 3.318928-.31158 1.781579-1.80165 2.92039-3.44763 2.634917zm1.62161-13.739665c.63568-.192539 1.05535-.457536 1.5619-.986248 1.37877-1.439087 1.57779-3.513385.5007-5.218329-.44527-.70483-1.17579-1.290657-1.94826-1.562383-.47425-.166817-.71793-.195357-1.41237-.165414-.7167.03091-.92404.07822-1.41978.324016-2.48521 1.232205-3.02256 4.706442-1.03228 6.674291 1.00782.996462 2.39956 1.343116 3.75009.934067zm-1.7681-1.832152c-.72859-.274837-1.20445-.845109-1.36484-1.635666-.31036-1.529678 1.05429-2.938118 2.47928-2.558838.54854.146001.92483.430054 1.26242.95298.23513.364229.29487.555524.32389 1.037029.03.498807-.00004.66737-.19399 1.086359-.46626 1.007388-1.53575 1.484422-2.50676 1.118136zm-17.62045 15.263556c-.5034-.264893-1.6544-2.530144-2.2510903-4.430258-1.56121-4.971525-.88942-10.348281 1.8384603-14.714175 1.08739-1.740351 1.54202-2.074345 2.08085-1.52868.33449.338747.31444.651732-.0765 1.192984-2.20451 3.052264-3.28978 6.66456-3.12405 10.398203.11697 2.634726.77994 4.929986 2.15807 7.471336.50469.930674.51271 1.245234.0395 1.550242-.32138.207139-.37674.212162-.66523.06035zm36.40477-.02072c-.12484-.07172-.27882-.26266-.34216-.424302-.10227-.260997-.0956-.330823.0597-.623796.79197-1.494458.98848-1.89558 1.26425-2.580588.73753-1.832073 1.0919-3.474059 1.16978-5.420014.14873-3.716592-.8188-7.128543-2.83751-10.006465-.64759-.923219-.70606-1.15548-.3906-1.55176.49596-.62302 1.03965-.25866 2.07984 1.393798 1.96209 3.117029 2.97304 7.175335 2.6624 10.687888-.25728 2.909208-1.02316 5.428981-2.31804 7.626517-.58094.985878-.86553 1.175673-1.34761.898722zm-34.42571-2.323874c-.31215-.04019-.52078-.334774-1.02174-1.442609-1.81002-4.002839-1.63142-8.561653.49669-12.677321.62252-1.203942.93558-1.607631 1.24669-1.607631.36381 0 .55871.127569.6842.44782.12095.308686.0196.58745-.60567 1.665067-1.95678 3.372572-2.05641 8.162267-.24886 11.96333.38168.802608.41135 1.049417.16586 1.379292-.18886.2538-.35865.318209-.71717.272052zm32.35595-.260756c-.25799-.346704-.22778-.568216.20149-1.476646.76402-1.616868 1.14803-3.207356 1.23745-5.125222.11715-2.51258-.43164-4.852495-1.63135-6.955664-.36556-.640858-.50916-.984147-.50916-1.217206 0-.422041.25131-.692067.64409-.692067.35607 0 .53674.202883 1.12467 1.262941 1.40576 2.534569 2.12412 5.720104 1.88154 8.343641-.17754 1.920393-.57026 3.373416-1.36373 5.045829-.42467.895071-.58281 1.056444-1.03524 1.056444-.2958 0-.4056-.04835-.54976-.24205zm-30.74463-2.375516c-.24739-.183157-.67897-1.403072-.90459-2.556883-.15466-.79091-.17561-1.139285-.13635-2.266588.0483-1.387128.16599-2.116681.53649-3.3265.33139-1.08206.64579-1.728463.88807-1.825829.30861-.124028.62093-.0058.76553.289705.17969.367327.15886.669029-.0807 1.168782-.32293.673608-.6473 1.909556-.74643 2.844094-.1402 1.321824.0577 2.791552.56937 4.22846.26974.757543.26929 1.069697-.002 1.356492-.24372.257611-.61133.294097-.88933.08827zm28.94408-.09744c-.26961-.284987-.25236-.578839.094-1.602635.37732-1.115195.50542-1.886992.5108-3.077465.006-1.306671-.14373-2.104271-.64875-3.457612-.39398-1.055753-.38801-1.338181.0353-1.672293.3654-.288363.65922-.136987.95256.49074.77168 1.651437 1.21609 4.193642 1.02275 5.850567-.17798 1.52522-.71116 3.301397-1.07102 3.567828-.27987.207199-.64406.166891-.89573-.09913z" fill="#bababa" stroke-width=".089352"/></svg>