<svg height="60" viewBox="0 0 60 60" width="60" xmlns="http://www.w3.org/2000/svg"><path d="m0 0h24v24h-24z" fill="none"/><path d="m5.1924448 58.921078c-.8856379-.182555-1.5896135-.57796-2.2636201-1.271452-.4116877-.423618-.5449354-.609994-.766551-1.072192-.3252558-.678464-.4384196-1.102144-.4816361-1.803404-.1370395-2.223853 1.4266601-4.231055 3.5980457-4.618599.4502143-.08027 3.2514951-.09052 24.7435507-.09052 21.492031 0 24.293311.0093 24.743525.09052 2.171411.387544 3.73509 2.394746 3.598046 4.618599-.04324.701851-.15634 1.124826-.48306 1.806667-.227392.474553-.352061.647072-.795485 1.100911-.443447.45384-.61201.581419-1.075688.814133-.302414.151743-.706126.32276-.897117.379983-.328544.0985-1.673365.104586-24.945541.113452-20.068341.0072-24.6675335-.0052-24.9744692-.06815zm24.3088752-13.380267c-.143251-.04039-.364628-.122556-.491955-.182555-.162131-.07633-2.28032-2.205655-7.067918-7.104901-5.331038-5.455371-6.864118-7.056522-6.962343-7.271526-.624458-1.36682.144892-2.91486 1.582579-3.184394.227754-.04277 1.821333-.06442 4.731547-.06442h4.388116v-11.452547c0-11.2452268.0024-11.4610488.115431-11.9211023.391289-1.5884736 1.575452-2.8219978 3.129244-3.25968.513952-.14474095 1.676409-.14496885 2.195896-.0002071 1.54229.4294896 2.734934 1.6733296 3.125763 3.2598871.113323.4600742.115409.6758755.115409 11.9211023v11.452556h4.388117c2.910215 0 4.503793.02103 4.731546.06442.439219.08244.95363.362002 1.219137.662773.114388.129558.288758.412142.38747.627943.157073.343349.179347.455196.178371.89582 0 .422861-.02762.565188-.166435.888538-.157339.366529-.489444.717377-6.913158 7.30295-3.711357 3.804848-6.865374 6.995549-7.008919 7.090473-.479775.317156-1.142372.425657-1.677909.274785z" fill="#bababa" stroke-width=".058553"/></svg>