<svg height="80" viewBox="0 0 52.916665 21.166667" width="200" xmlns="http://www.w3.org/2000/svg" xmlns:xlink="http://www.w3.org/1999/xlink"><filter id="a" color-interpolation-filters="sRGB" height="1.0864" width="1.033231" x="-.016615" y="-.0432"><feGaussianBlur stdDeviation=".3571875"/></filter><g fill="none"><rect height="19.843752" rx="2.643425" ry="1.872612" width="51.202408" x="1.052803" y=".66146"/><g fill-rule="evenodd" stroke-width="1.322917"><rect height="19.84375" rx="1.311837" ry="1.295217" stroke="#13243c" width="51.59375" x=".661458" y=".661457"/><rect filter="url(#a)" height="19.84375" rx="1.311837" ry="1.295217" stroke="#bababa" transform="matrix(.9926512 0 0 .9814432 .310204 -292.494761)" width="51.59375" x=".544834" y="298.88672"/></g></g><g transform="matrix(.05122053 0 0 .046875 16.74266 1.620883)"><path d="m176.08203 34.535156-122.191405.191406c-10.027344-1.390624-18.230469 9.421876-18.230469 21.121094v59.878904c.617188-.0664 1.238282-.10937 1.871094-.10937h137.35937l33.12891-39.476565zm0 0" fill="#556973"/><path d="m206.63281 76.160156-33.42969 39.457034h173.21875c1.54297 0 3.03907.19922 4.48438.55859l.0273-20.917968c.0117-8.429687-4.26562-15.710937-10.46484-19.097656zm0 0" fill="#768b94" fill-rule="evenodd"/><path d="m33.292969 113.72656h317.414061c9.6875 0 17.54297 7.83594 17.54297 17.50781v200.72266c0 9.66797-7.85547 17.50781-17.54297 17.50781h-317.414061c-9.6875 0-17.542969-7.83984-17.542969-17.50781v-200.72266c0-9.67187 7.855469-17.50781 17.542969-17.50781zm0 0" fill="#f5f5f5"/><path d="m33.292969 113.72656c-9.71875 0-17.542969 7.8086-17.542969 17.50781v200.72266c0 9.69922 7.824219 17.50781 17.542969 17.50781h152.066401l181.0586-226.04296c-2.86719-5.75391-8.8086-9.69532-15.71094-9.69532zm0 0" fill="#fff"/><path d="m15.75 316.53516v14.98437c0 12.77734 7.824219 17.94531 17.542969 17.94531h317.414061c9.71875 0 17.54297-4.01953 17.54297-16.79687v-16.13281c0 12.78125-7.82422 23.0664-17.54297 23.0664h-317.414061c-9.71875 0-17.542969-10.28515-17.542969-23.0664zm0 0" fill="#556973" height="100%" width="100%"/><path d="m33.292969 113.72656c-9.71875 0-17.542969 7.8086-17.542969 17.50781v5.98829c0-9.69922 7.824219-17.50782 17.542969-17.50782h317.414061c9.71875 0 17.54297 7.8086 17.54297 17.50782v-5.98829c0-9.69921-7.82422-17.50781-17.54297-17.50781zm0 0" fill="#808080" height="100%" width="100%"/></g></svg>