<svg height="256" viewBox="0 0 256 256" width="256" xmlns="http://www.w3.org/2000/svg"><path d="m0 232h24v24h-24z" fill="none"/><path d="m141.35404 89.903973h-25.55554v25.555557h25.55554zm51.11112 0h-25.55556v25.555557h25.55556zm38.33333 83.055557c-15.97222 0-31.30555-2.55555-45.61666-7.28334-4.47223-1.40555-9.45556-.38333-13.03334 3.06667l-28.1111 28.11112c-36.16112-18.4-65.805563-47.91667-84.205563-84.07778l28.111111-28.238893c3.577778-3.45 4.6-8.433333 3.194444-12.905556-4.727778-14.31111-7.283333-29.644444-7.283333-45.616665 0-7.027779-5.750001-12.777779-12.777778-12.777779h-44.722223c-7.027777 0-12.777777 5.75-12.777777 12.777779 0 119.983334 97.238889 217.222224 217.222219 217.222224 7.02778 0 12.77778-5.75 12.77778-12.77778v-44.72222c0-7.02778-5.75-12.77778-12.77778-12.77778zm-12.77778-83.055557v25.555557h25.55556v-25.555557z" fill="#bababa"/></svg>