<?xml version="1.0" encoding="UTF-8" standalone="no"?>
<svg
   xmlns:dc="http://purl.org/dc/elements/1.1/"
   xmlns:cc="http://creativecommons.org/ns#"
   xmlns:rdf="http://www.w3.org/1999/02/22-rdf-syntax-ns#"
   xmlns:svg="http://www.w3.org/2000/svg"
   xmlns="http://www.w3.org/2000/svg"
   xmlns:sodipodi="http://sodipodi.sourceforge.net/DTD/sodipodi-0.dtd"
   xmlns:inkscape="http://www.inkscape.org/namespaces/inkscape"
   height="256"
   viewBox="0 0 256 256"
   width="256"
   version="1.1"
   id="svg4"
   sodipodi:docname="info.svg"
   inkscape:version="0.92.4 (5da689c313, 2019-01-14)">
  <metadata
     id="metadata10">
    <rdf:RDF>
      <cc:Work
         rdf:about="">
        <dc:format>image/svg+xml</dc:format>
        <dc:type
           rdf:resource="http://purl.org/dc/dcmitype/StillImage" />
      </cc:Work>
    </rdf:RDF>
  </metadata>
  <defs
     id="defs8" />
  <sodipodi:namedview
     pagecolor="#ffffff"
     bordercolor="#666666"
     borderopacity="1"
     objecttolerance="10"
     gridtolerance="10"
     guidetolerance="10"
     inkscape:pageopacity="0"
     inkscape:pageshadow="2"
     inkscape:window-width="873"
     inkscape:window-height="489"
     id="namedview6"
     showgrid="false"
     inkscape:zoom="0.921875"
     inkscape:cx="128"
     inkscape:cy="128"
     inkscape:window-x="0"
     inkscape:window-y="0"
     inkscape:window-maximized="0"
     inkscape:current-layer="svg4" />
  <path
     d="m 115.17288,89.78983 h 25.65424 V 64.677966 H 115.17288 M 128,227.90508 c -56.567593,0 -102.616949,-45.07579 -102.616949,-100.44746 0,-55.371654 46.049356,-100.44745 102.616949,-100.44745 56.56759,0 102.61695,45.075796 102.61695,100.44745 0,55.37167 -46.04936,100.44746 -102.61695,100.44746 M 128,1.8983051 A 128.27118,125.55932 0 0 0 -0.27118644,127.45762 128.27118,125.55932 0 0 0 128,253.01695 128.27118,125.55932 0 0 0 256.27119,127.45762 128.27118,125.55932 0 0 0 128,1.8983051 M 115.17288,190.23729 h 25.65424 V 114.9017 h -25.65424 z"
     id="path2"
     inkscape:connector-curvature="0"
     style="fill:#bababa;stroke-width:1.13310719" />
</svg>
