<svg height="60" viewBox="0 0 60 60" width="60" xmlns="http://www.w3.org/2000/svg"><path d="m30.059323 3.3573434c14.727166 0 26.583333 11.8561666 26.583333 26.5833326 0 14.727167-11.856167 26.583333-26.583333 26.583333-14.727167 0-26.5833344-11.856166-26.5833344-26.583333 0-14.727166 11.8561674-26.5833326 26.5833344-26.5833326z" fill="none" stroke="#bababa" stroke-linejoin="round" stroke-width="4.833"/><g fill="#bababa" transform="matrix(.04901961 0 0 .04901961 112.43221 27.39831)"><path d="m-1925.2067-121.3627h489.6c33.782 0 61.2-27.387 61.2-61.2s-27.387-61.2-61.2-61.2h-489.6c-33.813 0-61.2 27.387-61.2 61.2s27.387 61.2 61.2 61.2zm489.6 122.3999989h-489.6c-33.813 0-61.2 27.3870001-61.2 61.2000001 0 33.812 27.387 61.200001 61.2 61.200001h489.6c33.782 0 61.2-27.388001 61.2-61.200001 0-33.813-27.387-61.2000001-61.2-61.2000001zm0 244.8000011h-489.6c-33.813 0-61.2 27.387-61.2 61.2s27.387 61.2 61.2 61.2h489.6c33.782 0 61.2-27.387 61.2-61.2s-27.387-61.2-61.2-61.2z"/><g stroke-width="2.59322" transform="translate(-1986.4067 -243.7627)"><path d="m47.179822 119.48962c-28.064688-8.67167-45.153802-30.837789-45.1386905-58.548942.0133979-24.568815 13.1963355-44.653639 36.0792075-54.9683673 9.725372-4.3838281 25.891625-4.7208607 258.978201-5.39915014 162.63363-.47326919 253.65649.20076712 263.21186 1.94912194 19.62077 3.5900268 33.372 13.6733605 42.59546 31.2338635 6.52486 12.422646 7.34797 16.415098 6.51708 31.61091-1.16273 21.2638-9.90382 35.448554-29.19502 47.376674l-12.68119 7.84102-256.93355.45662c-141.31343.25115-259.858446-.44714-263.433358-1.55175z"/><path d="m34.502177 358.81071c-43.8305421-21.84168-43.8305421-83.77974 0-105.62142l13.712762-6.83336 255.571331.0145c172.17396.01 258.80456.91227 265.47948 2.76579 12.65811 3.51496 29.74655 18.88922 35.82161 32.22822 2.74012 6.01653 4.72417 16.36288 4.72417 24.6356s-1.98405 18.61907-4.72417 24.63559c-6.07506 13.33901-23.1635 28.71327-35.82161 32.22822-6.67492 1.85352-93.30552 2.75605-265.47948 2.76579l-255.571331.0145z"/><path d="m50.636258 609.2917c-29.685199-5.86966-48.6113134-28.54915-48.5951265-58.23238.0129856-23.81249 11.9750995-42.66221 34.7825975-54.80988 8.682701-4.62456 20.386202-4.83419 269.898561-4.83419h260.82229l12.68225 7.84102c19.29195 11.92755 28.03336 26.11231 29.19611 47.37667.82887 15.15878.005 19.17838-6.40461 31.29815-9.0951 17.19411-23.47432 27.94013-42.06974 31.43994-16.94651 3.18949-494.155825 3.1153-510.312332-.0793z"/></g></g></svg>