<?xml version="1.0" encoding="UTF-8" standalone="no"?>
<svg
   xmlns:dc="http://purl.org/dc/elements/1.1/"
   xmlns:cc="http://creativecommons.org/ns#"
   xmlns:rdf="http://www.w3.org/1999/02/22-rdf-syntax-ns#"
   xmlns:svg="http://www.w3.org/2000/svg"
   xmlns="http://www.w3.org/2000/svg"
   xmlns:sodipodi="http://sodipodi.sourceforge.net/DTD/sodipodi-0.dtd"
   xmlns:inkscape="http://www.inkscape.org/namespaces/inkscape"
   height="60"
   viewBox="0 0 60 60"
   width="60"
   version="1.1"
   id="svg20"
   sodipodi:docname="ok_neutral.svg"
   inkscape:version="0.92.4 (5da689c313, 2019-01-14)">
  <metadata
     id="metadata26">
    <rdf:RDF>
      <cc:Work
         rdf:about="">
        <dc:format>image/svg+xml</dc:format>
        <dc:type
           rdf:resource="http://purl.org/dc/dcmitype/StillImage" />
      </cc:Work>
    </rdf:RDF>
  </metadata>
  <defs
     id="defs24" />
  <sodipodi:namedview
     pagecolor="#ffffff"
     bordercolor="#666666"
     borderopacity="1"
     objecttolerance="10"
     gridtolerance="10"
     guidetolerance="10"
     inkscape:pageopacity="0"
     inkscape:pageshadow="2"
     inkscape:window-width="873"
     inkscape:window-height="489"
     id="namedview22"
     showgrid="false"
     inkscape:zoom="3.9333333"
     inkscape:cx="30"
     inkscape:cy="30"
     inkscape:window-x="0"
     inkscape:window-y="0"
     inkscape:window-maximized="0"
     inkscape:current-layer="g12" />
  <g
     fill="none"
     id="g12">
    <path
       d="m 29.932204,2.9468552 c 15.181992,0 27.404317,12.1024388 27.404317,27.1355098 0,15.033074 -12.222325,27.135511 -27.404317,27.135511 -15.181993,0 -27.4043194,-12.102437 -27.4043194,-27.135511 0,-15.033071 12.2223264,-27.1355098 27.4043194,-27.1355098 z"
       id="path2"
       inkscape:connector-curvature="0"
       style="stroke:#bababa;stroke-width:4.95776415;stroke-linejoin:round" />
    <path
       d="m25.219597 58.371196c-6.087845-1.099381-11.308441-3.896019-15.6890732-8.404536-12.1874204-12.543211-10.38185732-32.944804 3.8423572-43.4159353 8.463505-6.23039426 20.345261-7.18745179 29.833661-2.4030564 3.059832 1.5428779 4.895316 2.8783515 7.443272 5.4156292 5.290449 5.2682745 8.101075 11.6524395 8.41488 19.1138855.365492 8.690382-2.631074 16.121044-8.945992 22.18362-5.480746 5.261733-12.286714 7.953022-19.96616 7.895232-1.60805-.0121-3.827876-.185278-4.932945-.384839zm9.398964-2.656986c10.41268-1.85565 18.3084-9.162295 21.001406-19.434549.756163-2.88433.916777-7.903454.34938-10.918094-1.258233-6.685134-4.643463-12.241973-9.84604-16.1622338-5.057975-3.8112968-10.825681-5.5858568-17.094928-5.2596259-13.997096.7283624-24.80804 12.0517797-24.80804 25.9840217 0 13.036101 9.335419 23.839126 22.372881 25.890089 1.388672.218456 6.603786.153727 8.025341-.09961z"
       stroke-width=".254237"
       id="path4" />
    <g
       transform="translate(93.508476 478.016951)"
       id="g10">
      <path
         d="m-838-2232h1400v3600h-1400z"
         id="path6" />
      <path
         d="m0 0h48v48h-48z"
         id="path8" />
    </g>
  </g>
  <g
     fill="#bababa"
     stroke-width="1.225998"
     transform="scale(.96082034 1.0407773)"
     id="g18">
    <path
       d="m14.868307 29.223554q0-2.503079.748689-4.201597.558723-1.251539 1.519726-2.246066.972178-.994527 2.123147-1.475029 1.530901-.648119 3.53113-.648119 3.620524 0 5.788369 2.246067 2.17902 2.246066 2.17902 6.246522 0 3.966933-2.156671 6.213-2.15667 2.234891-5.766021 2.234891-3.654048 0-5.810718-2.223717-2.156671-2.234892-2.156671-6.145952zm3.40821-.111745q0 2.78244 1.285063 4.223945 1.285063 1.430331 3.262942 1.430331 1.977879 0 3.240593-1.419156 1.273888-1.430331 1.273888-4.279818 0-2.815964-1.240365-4.201596-1.22919-1.385633-3.274116-1.385633-2.044926 0-3.296465 1.407981-1.25154 1.396808-1.25154 4.223946z"
       id="path14" />
    <path
       d="m33.373212 37.313862v-16.381757h3.30764v7.274573l6.682326-7.274573h4.447435l-6.168301 6.380616 6.503535 10.001141h-4.279818l-4.503307-7.688028-2.68187 2.737743v4.950285z"
       id="path16" />
  </g>
</svg>
