<svg height="200" viewBox="0 0 250 200" width="250" xmlns="http://www.w3.org/2000/svg"><path d="m119.37055 195.38457c-11.16465-3.72007-17.57267-9.25289-22.015001-19.00821-2.486403-5.46011-4.605238-20.45359-2.889426-20.44634.512275.002 1.792426 2.10891 2.844778 4.68169 2.284686 5.58555 8.219469 12.00536 13.369749 14.46243 5.68322 2.7113 17.46082 4.05801 25.49084 2.91473 9.4596-1.34682 16.94221-5.28301 23.2654-12.23863l5.27396-5.80149v3.64168c0 6.73183-3.87988 16.85947-8.46515 22.09651-6.47538 7.39583-13.04135 10.35813-23.84633 10.75852-5.43904.20154-10.46928-.20805-13.02882-1.06089zm77.02869-30.56078c-1.51159-2.31933-1.56439-3.59252-.44814-10.80649 2.09939-13.56782-.73789-34.24495-5.67057-41.32505-1.93247-2.77376-2.06808-6.41656-.29376-7.89066.71659-.59534 3.06009-1.41256 5.20778-1.81606l3.9049-.73362-3.64462-6.972888c-9.67144-18.50337-26.75846-32.9862-45.85741-38.8684-26.94895-8.29988-56.439816 1.10116-76.197239 24.29-4.764351 5.59182-11.877603 16.54226-11.877603 18.28488 0 .51873 1.993411 1.635908 4.429806 2.482648 5.483517 1.90573 6.080846 4.42527 2.529249 10.66852-4.667088 8.20411-7.063531 27.52719-4.897819 39.49199 2.250004 12.4305-.01189 14.73451-12.380563 12.6111-7.470041-1.28243-8.210431-1.66222-13.003942-6.67057-6.719921-7.02109-9.228738-12.82377-9.810095-22.68994-.730769-12.40154 1.546236-18.77631 9.606305-26.8941 5.168621-5.20564 7.162398-6.54931 9.718113-6.54931 5.095436 0 6.434573-.96115 9.307134-6.680068 4.099444-8.16149 8.380582-14.08251 15.903237-21.99494 15.98855-16.81693 34.525817-24.95077 56.707947-24.88246 30.19749.093 57.04964 17.46469 72.25753 46.74619 4.36377 8.402058 4.86074 8.869198 9.45873 8.891018 2.62239.0125 4.65764 1.2209 9.06469 5.38232 8.48035 8.00768 10.41259 12.74828 10.41259 25.54645 0 12.1141-1.58461 16.39746-9.24638 24.99402-3.99027 4.47711-5.32229 5.25465-11.15653 6.5125-9.76517 2.10533-12.03559 1.92285-14.02334-1.12708zm-56.70373-29.68812c0-5.96803 5.38019-16.03989 10.45799-19.57765 12.97267-9.03823 29.87395.74213 31.96564 18.49775l.61629 5.23146-5.09082-.32567c-4.93468-.31566-5.10893-.43859-5.68137-4.00834-1.16242-7.24876-5.95335-12.55959-11.33008-12.55959-4.61637 0-10.51459 7.61247-10.51459 13.57052 0 3.13626-.0969 3.19571-5.21152 3.19571h-5.21154zm-57.936666-2.46552c1.097358-6.89931 5.623327-14.26304 10.550881-17.16625 10.857855-6.39721 23.160785-.54936 27.194735 12.92626 2.35636 7.87152 2.08751 8.63392-3.04465 8.63392-4.3893 0-4.49688-.0853-5.66966-4.49363-1.86209-6.99944-4.87278-10.17682-9.64294-10.17682-3.188261 0-4.549133.655-6.699913 3.22476-1.484446 1.77362-2.993209 5.07447-3.352791 7.33523-.648251 4.07569-.693473 4.11046-5.344162 4.11046h-4.690383zm-70.788507-49.452828c-6.7934516-2.97659-7.4910763-7.93754-1.6694886-11.8723 4.2504216-2.87282 13.1219246-3.26734 17.8773966-.79501l3.075162 1.59874v-26.06389-26.06389l14.852857-4.357529c8.169073-2.396641 18.018861-5.264772 21.888425-6.3736236l7.035559-2.016095-.103911 27.4331306c-.05707 15.088217-.420095 28.569497-.80655 29.958387-1.263772 4.54193-5.768626 6.90575-13.160686 6.90575-8.420365 0-12.507671-2.58602-12.507671-7.91352 0-2.88077.634359-3.86827 3.605639-5.61289 4.495689-2.63969 12.78634-2.76587 17.501058-.26638l3.387492 1.79588v-21.999698c0-17.143907-.287568-21.899238-1.302882-21.544557-2.608299.911165-37.252199 11.005866-37.770924 11.005866-.293611 0-.533815 11.552979-.533815 25.673289 0 24.44363-.101831 25.77568-2.126246 27.81092-4.21043 4.23299-12.942866 5.45718-19.241435 2.69742zm193.634833-2.70881c-11.21812-2.67959-12.68594-12.18087-2.55081-16.51141 5.0709-2.1667 14.41116-2.13189 18.62868.0695 1.83465.95759 3.57025 1.74108 3.85687 1.74108.48118 0 .30873-9.15792-.89293-47.416998-.27231-8.6700276-.0602-14.4084776.53253-14.4084776.5418 0 .98509.67546.98509 1.501022s3.7523 5.5729286 8.33845 10.5497046c4.58614 4.976776 8.33845 9.561453 8.33845 10.188171 0 .626717-.85775.359077-1.90611-.594757-3.7068-3.372569-9.47837-1.718043-12.15424 3.484227-1.25092 2.431974-1.57425 7.38593-1.57425 24.120418v21.05987l-2.63142 2.45179c-2.55923 2.38451-9.92131 4.89272-13.72529 4.6761-1.03601-.059-3.39626-.46856-5.24502-.91016zm38.36092-38.365745c.05-1.22073.29699-1.46904.62971-.6331.3011.75644.26408 1.66025-.0822 2.00845-.34636.34821-.5927-.2707-.54744-1.37535zm0-9.431007c.05-1.220731.29699-1.469036.62971-.6331.3011.756445.26408 1.66025-.0822 2.008455-.34636.348204-.5927-.270705-.54744-1.375355z" fill="#d3d3d3" stroke-width="1.04509"/></svg>