<svg height="60" viewBox="0 0 60 60" width="60" xmlns="http://www.w3.org/2000/svg"><g fill="none"><path d="m25.219597 58.371196c-6.087845-1.099381-11.308441-3.896019-15.6890732-8.404536-12.1874204-12.543211-10.38185732-32.944804 3.8423572-43.4159353 8.463505-6.23039426 20.345261-7.18745179 29.833661-2.4030564 3.059832 1.5428779 4.895316 2.8783515 7.443272 5.4156292 5.290449 5.2682745 8.101075 11.6524395 8.41488 19.1138855.365492 8.690382-2.631074 16.121044-8.945992 22.18362-5.480746 5.261733-12.286714 7.953022-19.96616 7.895232-1.60805-.0121-3.827876-.185278-4.932945-.384839zm9.398964-2.656986c10.41268-1.85565 18.3084-9.162295 21.001406-19.434549.756163-2.88433.916777-7.903454.34938-10.918094-1.258233-6.685134-4.643463-12.241973-9.84604-16.1622338-5.057975-3.8112968-10.825681-5.5858568-17.094928-5.2596259-13.997096.7283624-24.80804 12.0517797-24.80804 25.9840217 0 13.036101 9.335419 23.839126 22.372881 25.890089 1.388672.218456 6.603786.153727 8.025341-.09961z" stroke-width=".254237"/><g transform="translate(93.508476 478.016951)"><path d="m-838-2232h1400v3600h-1400z"/><path d="m0 0h48v48h-48z"/></g></g><path d="m29.928313 1.0741185a29 29 0 0 0 -29.00000187 29.0000005 29 29 0 0 0 29.00000187 29 29 29 0 0 0 29.000004-29 29 29 0 0 0 -29.000004-29.0000005m-21.2666699 19.3333345h7.7333299a3.8666668 3.8666669 0 0 1 3.86667 3.866666v3.866669c0 1.933331-1.46933 3.48-3.32533 3.750663l4.524 7.849337h-4.48534l-4.446662-7.733337v7.733337h-3.8666679m19.3333399-19.333335h7.733334v3.866666h-7.733334v3.866669h7.733334v3.866663h-7.733334v3.866668h7.733334v3.866669h-7.733334a3.8666668 3.8666669 0 0 1 -3.86667-3.866669v-11.6a3.8666668 3.8666669 0 0 1 3.86667-3.866666m15.466664 0h7.73334v3.866666h-7.73334v11.6h7.73334v3.866669h-7.73334a3.8666668 3.8666669 0 0 1 -3.86666-3.866669v-11.6a3.8666668 3.8666669 0 0 1 3.86666-3.866666m-30.933336 3.866666v3.866669h3.866662v-3.866669" fill="#bababa" stroke-width=".258928"/></svg>