<svg height="60" viewBox="0 0 60 60" width="60" xmlns="http://www.w3.org/2000/svg"><g fill="none"><path d="m30.000275 3.3573433c14.72717 0 26.58334 11.8561657 26.58334 26.5833327s-11.85617 26.583333-26.58334 26.583333c-14.72716 0-26.5833295-11.856166-26.5833295-26.583333s11.8561695-26.5833327 26.5833295-26.5833327z" stroke="#36c" stroke-linejoin="round" stroke-width="4.833"/><g transform="translate(93.508476 478.016951)"><path d="m-838-2232h1400v3600h-1400z"/><path d="m0 0h48v48h-48z"/></g></g><path d="m24.854726 12.935844a12.628571 12.62857 0 0 1 12.628573 12.628564c0 3.128-1.146286 6.003436-3.030856 8.218286l.52457.524576h1.534856l9.714287 9.714276-2.914288 2.914298-9.714281-9.714298v-1.534852l-.524574-.524562c-2.214856 1.884574-5.090287 3.03085-8.218287 3.03085a12.628571 12.62857 0 0 1 -12.62857-12.628574 12.628571 12.62857 0 0 1 12.62857-12.628564m0 3.885712c-4.85714 0-8.742857 3.885714-8.742857 8.742852 0 4.857148 3.885717 8.742862 8.742857 8.742862 4.857143 0 8.742861-3.885714 8.742861-8.742862 0-4.857138-3.885718-8.742852-8.742861-8.742852z" fill="#bababa" stroke-width=".311927"/></svg>