<svg height="256" width="256" xmlns="http://www.w3.org/2000/svg"><g fill="#bababa" transform="matrix(5.44059246211 0 0 6.86095748387 860.19944466199 -898.31385384485)"><g stroke-width=".259782" transform="matrix(.91859441 0 0 .92622187 -8.0915 11.241307)"><path d="m-138.31514 137.0031q0-.14359.11751-.14359.1175 0 .23501 0 .1175 0 .23501 0 .1175 0 .23501 0 .1175 0 .23501 0 .1175 0 .23501 0 .1175 0 .23501 0 .1175 0 .23502 0 .1175 0 .23501 0 .1175 0 .235 0 .11751 0 .23502 0 .11751 0 .23501 0 .1175 0 .235 0 .11752 0 .23502 0 .1175 0 .23501 0 .1175 0 .23501 0 .11751 0 .23501 0 .1175 0 .235 0 .11751 0 .23503 0 .1175 0 .235 0 .11751 0 .23501 0 .11751 0 .23502 0 .1175 0 .23501 0 .1175 0 .23501 0 .1175 0 .23501 0 .1175 0 .235 0 .11751 0 .23502 0 .11751 0 .23501 0 .1175 0 .23501 0 .1175 0 .23501 0 .1175 0 .23501 0 .11751 0 .23501 0 .1175 0 .23501 0 .11751 0 .23502 0 .1175 0 .23501 0 .1175 0 .23501 0 .11751 0 .23501 0 .1175 0 .235 0 .11751 0 .23503 0 .1175 0 .235 0 .1175 0 .235 0 .11752 0 .23502 0 .1175 0 .23501 0 .1175 0 .23501 0 .11751 0 .23501 0 .1175 0 .23501 0 .11751 0 .23502 0 .11751 0 .23501 0 .1175 0 .23501 0 .1175 0 .23501 0 .1175 0 .23501 0 .11751 0 .23501 0 .1175 0 .23501 0 .1175 0 .23501 0 .1175 0 .23501 0 .11751 0 .23501 0 .11751 0 .23501 0 .1175 0 .23501 0 .11751 0 .23501 0 .11751 0 .23502 0 .1175 0 .23501 0 .11751 0 .23501 0 .1175 0 .235 0 .11751 0 .23502 0 .11751 0 .23501 0 .1175 0 .235 0 .11751 0 .23502 0 .11751 0 .23501 0 .1175 0 .23501 0 .11751 0 .23501 0 .1175 0 .235 0 .11751 0 .23502 0 .11751 0 .23502 0 .1175 0 .23501 0 .1175 0 .23501 0 .11751 0 .23501 0 .1175 0 .23501 0 .1175 0 .23501 0 .1175 0 .23501 0 .11751 0 .23501 0 .1175 0 .23501 0 .11751 0 .23501 0 .1175 0 .235 0 .11752 0 .23502 0 .11751 0 .11751.14359 0 .14357 0 .28715 0 .14359 0 .28717 0 .14358 0 .28717 0 .14358 0 .28715 0 .14359 0 .28717 0 .14359 0 .28717 0 .14358 0 .28716 0 .14358 0 .28717 0 .14357 0 .28717 0 .14357 0 .28715 0 .14359 0 .28716 0 .14359 0 .28718 0 .14358 0 .28715 0 .14359 0 .28718 0 .14357 0 .28715 0 .14359 0 .28717 0 .14357 0 .28716 0 .14359-.11751.14359-.1175 0-.23502 0-.1175 0-.235 0-.1175 0-.23501 0-.11751 0-.23501 0-.1175 0-.23501 0-.11751 0-.23501 0-.11751 0-.23501 0-.11751 0-.23501 0-.1175 0-.23501 0-.11751 0-.23501 0-.11751 0-.23501 0-.11751 0-.23502 0-.11751 0-.23502 0-.1175 0-.235 0-.1175 0-.23501 0-.11751 0-.23501 0-.1175 0-.23501 0-.11751 0-.23502 0-.1175 0-.235 0-.1175 0-.23501 0-.11751 0-.23502 0-.1175 0-.235 0-.1175 0-.23501 0-.11751 0-.23501 0-.11751 0-.23502 0-.1175 0-.23501 0-.11751 0-.23501 0-.1175 0-.23501 0-.1175 0-.23501 0-.11751 0-.23501 0-.11751 0-.23501 0-.11751 0-.23501 0-.1175 0-.23501 0-.11751 0-.23501 0-.11751 0-.23501 0-.11751 0-.23501 0-.1175 0-.23501 0-.11751 0-.23502 0-.11751 0-.23501 0-.1175 0-.23501 0-.11751 0-.23501 0-.11751 0-.23501 0-.1175 0-.23502 0-.1175 0-.235 0-.1175 0-.235 0-.11752 0-.23503 0-.1175 0-.235 0-.1175 0-.23501 0-.11751 0-.23501 0-.11751 0-.23501 0-.11751 0-.23502 0-.11751 0-.23501 0-.1175 0-.23501 0-.11751 0-.23501 0-.11751 0-.23501 0-.11751 0-.23501 0-.1175 0-.23501 0-.11751 0-.23502 0-.1175 0-.235 0-.11751 0-.23501 0-.11751 0-.23501 0-.11751 0-.23501 0-.11751 0-.23502 0-.1175 0-.23501 0-.1175 0-.235 0-.11752 0-.23503 0-.1175 0-.235 0-.1175 0-.23501 0-.11751 0-.23501 0-.11751 0-.23501 0-.1175 0-.23502 0-.1175 0-.235 0-.1175 0-.23501 0-.11751 0-.23502 0-.1175 0-.235 0-.11751 0-.23501 0-.11752 0-.23502 0-.11751 0-.23501 0-.11751 0-.23501 0-.11751 0-.23501 0-.11751 0-.23501 0-.11751 0-.23501 0-.11751 0-.23501 0-.11751 0-.11751-.14359 0-.14359 0-.28716 0-.14358 0-.28717 0-.14358 0-.28715 0-.14359 0-.28718 0-.14357 0-.28715 0-.14359 0-.28718 0-.14357 0-.28716 0-.14358 0-.28715 0-.1436 0-.28717 0-.14359 0-.28717 0-.14358 0-.28716 0-.14358 0-.28717 0-.14358 0-.28717 0-.14357 0-.28715 0-.14359 0-.28717 0-.14358 0-.28717 0-.14358 0-.28715"/><path d="m-132.67488 147.341q0-.14357.11751-.14357.1175 0 .235 0 .11751 0 .23502 0 .11751 0 .23501 0 .1175 0 .23501 0 .1175 0 .23501 0 .1175 0 .23501 0 .11751 0 .23501 0 .1175 0 .23501 0 .11751 0 .23502 0 .1175 0 .23501 0 .1175 0 .23501 0 .11751 0 .23501 0 .1175 0 .235 0 .11751 0 .23503 0 .1175 0 .235 0 .1175 0 .235 0 .11752 0 .23502 0 .1175 0 .23501 0 .1175 0 .23501 0 .11751 0 .23501 0 .1175 0 .23501 0 .11751 0 .23502 0 .11751 0 .23501 0 .1175 0 .23501 0 .1175 0 .23501 0 .1175 0 .23501 0 .11751 0 .23501 0 .1175 0 .23501 0 .1175 0 .23501 0 .1175 0 .23501 0 .11751 0 .23501 0 .11751 0 .23501 0 .1175 0 .23501 0 .11751 0 .23501 0 .11751 0 .23502 0 .1175 0 .23501 0 .11751 0 .23501 0 .1175 0 .235 0 .11751 0 .23502 0 .11751 0 .23501 0 .1175 0 .235 0 .11751 0 .23502 0 .11751 0 .23501 0 .1175 0 .23501 0 .11751 0 .23501 0 .1175 0 .235 0 .11751 0 .23502 0 .11751 0 .23502 0 .1175 0 .23501 0 .1175 0 .23501 0 .11751 0 .23501 0 .1175 0 .23501 0 .1175 0 .23501 0 .1175 0 .23501 0 .11751 0 .23501 0 .1175 0 .23501 0 .11751 0 .23501 0 .1175 0 .235 0 .11752 0 .23502 0 .11751 0 .23501 0 .11751 0 .23501 0 .11752 0 .23502 0 .11751 0 .23501 0 .1175 0 .23501 0 .11751 0 .23501 0 .1175 0 .235 0 .11751 0 .23503 0 .1175 0 .235 0 .1175 0 .235 0 .11751 0 .23502 0 .11751 0 .23501 0 .1175 0 .23501 0 .11751 0 .23501 0 .11751 0 .23502 0 .1175 0 .23501 0 .11751 0 .23501 0 .1175 0 .23501 0 .1175 0 .23501 0 .11751 0 .23501 0 .11751 0 .23501 0 .1175 0 .23501 0 .1175 0 .23501 0 .11751 0 .23501 0 .1175 0 .1175.14357 0 .14358 0 .28717 0 .14358 0 .28716 0 .14358 0 .28717 0 .14358 0 .28716 0 .14358 0 .28716 0 .1436 0 .28716 0 .14359 0 .28718 0 .14357 0 .28715 0 .14359 0 .28718 0 .14357 0 .28716 0 .14358 0 .28716 0 .14358 0 .28716 0 .14359 0 .28717 0 .14358 0 .28716 0 .14359 0 .28717 0 .14357 0 .28717 0 .14357 0 .28715 0 .14359-.1175.14359-.1175 0-.23501 0-.11751 0-.23501 0-.11751 0-.23501 0-.1175 0-.23501 0-.1175 0-.23501 0-.11751 0-.23501 0-.11751 0-.23501 0-.1175 0-.23501 0-.11751 0-.23501 0-.11751 0-.23502 0-.1175 0-.23501 0-.11751 0-.23501 0-.1175 0-.23501 0-.11751 0-.23502 0-.1175 0-.235 0-.1175 0-.235 0-.11752 0-.23503 0-.1175 0-.235 0-.1175 0-.23501 0-.11751 0-.23501 0-.1175 0-.23501 0-.1175 0-.23502 0-.1175 0-.23501 0-.1175 0-.23501 0-.1175 0-.23502 0-.1175 0-.235 0-.1175 0-.23501 0-.11751 0-.23501 0-.1175 0-.23501 0-.11751 0-.23501 0-.11751 0-.23501 0-.11751 0-.23501 0-.1175 0-.23501 0-.11751 0-.23501 0-.11751 0-.23501 0-.11751 0-.23502 0-.11751 0-.23502 0-.1175 0-.235 0-.1175 0-.23501 0-.11751 0-.23501 0-.1175 0-.23501 0-.11751 0-.23502 0-.1175 0-.235 0-.1175 0-.23501 0-.11751 0-.23502 0-.1175 0-.235 0-.1175 0-.23501 0-.11751 0-.23501 0-.11751 0-.23502 0-.1175 0-.23501 0-.11751 0-.23501 0-.1175 0-.23501 0-.1175 0-.23501 0-.11751 0-.23501 0-.11751 0-.23501 0-.11751 0-.23501 0-.1175 0-.23501 0-.11751 0-.23501 0-.11751 0-.23501 0-.11751 0-.23501 0-.1175 0-.23501 0-.11751 0-.23502 0-.11751 0-.23501 0-.1175 0-.23501 0-.11751 0-.23501 0-.11751 0-.23501 0-.1175 0-.23502 0-.1175 0-.235 0-.1175 0-.235 0-.11752 0-.23503 0-.1175 0-.235 0-.1175 0-.23501 0-.11751 0-.23501 0-.11751 0-.23501 0-.11751 0-.23502 0-.11751 0-.23501 0-.1175 0-.23501 0-.11751 0-.23501 0-.11751 0-.23501 0-.11751 0-.23501 0-.1175 0-.23501 0-.11751 0-.23502 0-.1175 0-.235 0-.11751 0-.11751-.14359 0-.14358 0-.28715 0-.1436 0-.28717 0-.14358 0-.28717 0-.14358 0-.28716 0-.14358 0-.28717 0-.14358 0-.28716 0-.14358 0-.28716 0-.14359 0-.28716 0-.14359 0-.28718 0-.14358 0-.28715 0-.14359 0-.28718 0-.14356 0-.28716 0-.14358 0-.28716 0-.14358 0-.28716 0-.14359 0-.28717 0-.14358 0-.28716 0-.14359 0-.28717"/><path d="m-138.31514 157.67892q0-.14359.11751-.14359.1175 0 .23501 0 .1175 0 .23501 0 .1175 0 .23501 0 .1175 0 .23501 0 .1175 0 .23501 0 .1175 0 .23501 0 .1175 0 .23502 0 .1175 0 .23501 0 .1175 0 .235 0 .11751 0 .23502 0 .11751 0 .23501 0 .1175 0 .235 0 .11752 0 .23502 0 .1175 0 .23501 0 .1175 0 .23501 0 .11751 0 .23501 0 .1175 0 .235 0 .11751 0 .23503 0 .1175 0 .235 0 .11751 0 .23501 0 .11751 0 .23502 0 .1175 0 .23501 0 .1175 0 .23501 0 .1175 0 .23501 0 .1175 0 .235 0 .11751 0 .23502 0 .11751 0 .23501 0 .1175 0 .23501 0 .1175 0 .23501 0 .1175 0 .23501 0 .11751 0 .23501 0 .1175 0 .23501 0 .11751 0 .23502 0 .1175 0 .23501 0 .1175 0 .23501 0 .11751 0 .23501 0 .1175 0 .235 0 .11751 0 .23503 0 .1175 0 .235 0 .1175 0 .235 0 .11752 0 .23502 0 .1175 0 .23501 0 .1175 0 .23501 0 .11751 0 .23501 0 .1175 0 .23501 0 .11751 0 .23502 0 .11751 0 .23501 0 .1175 0 .23501 0 .1175 0 .23501 0 .1175 0 .23501 0 .11751 0 .23501 0 .1175 0 .23501 0 .1175 0 .23501 0 .1175 0 .23501 0 .11751 0 .23501 0 .11751 0 .23501 0 .1175 0 .23501 0 .11751 0 .23501 0 .11751 0 .23502 0 .1175 0 .23501 0 .11751 0 .23501 0 .1175 0 .235 0 .11751 0 .23502 0 .11751 0 .23501 0 .1175 0 .235 0 .11751 0 .23502 0 .11751 0 .23501 0 .1175 0 .23501 0 .11751 0 .23501 0 .1175 0 .235 0 .11751 0 .23502 0 .11751 0 .23502 0 .1175 0 .23501 0 .1175 0 .23501 0 .11751 0 .23501 0 .1175 0 .23501 0 .1175 0 .23501 0 .1175 0 .23501 0 .11751 0 .23501 0 .1175 0 .23501 0 .11751 0 .23501 0 .1175 0 .235 0 .11752 0 .23502 0 .11751 0 .11751.14359 0 .14358 0 .28715 0 .1436 0 .28718 0 .14357 0 .28716 0 .14358 0 .28716 0 .14359 0 .28717 0 .14358 0 .28716 0 .14359 0 .28716 0 .14359 0 .28717 0 .14358 0 .28716 0 .14358 0 .28717 0 .14358 0 .28717 0 .14357 0 .28715 0 .1436 0 .28716 0 .14359 0 .28718 0 .14358 0 .28715 0 .14359 0 .28718 0 .14358 0 .28716 0 .14358-.11751.14358-.1175 0-.23502 0-.1175 0-.235 0-.1175 0-.23501 0-.11751 0-.23501 0-.1175 0-.23501 0-.11751 0-.23501 0-.11751 0-.23501 0-.11751 0-.23501 0-.1175 0-.23501 0-.11751 0-.23501 0-.11751 0-.23501 0-.11751 0-.23502 0-.11751 0-.23502 0-.1175 0-.235 0-.1175 0-.23501 0-.11751 0-.23501 0-.1175 0-.23501 0-.11751 0-.23502 0-.1175 0-.235 0-.1175 0-.23501 0-.11751 0-.23502 0-.1175 0-.235 0-.1175 0-.23501 0-.11751 0-.23501 0-.11751 0-.23502 0-.1175 0-.23501 0-.11751 0-.23501 0-.1175 0-.23501 0-.1175 0-.23501 0-.11751 0-.23501 0-.11751 0-.23501 0-.11751 0-.23501 0-.1175 0-.23501 0-.11751 0-.23501 0-.11751 0-.23501 0-.11751 0-.23501 0-.1175 0-.23501 0-.11751 0-.23502 0-.11751 0-.23501 0-.1175 0-.23501 0-.11751 0-.23501 0-.11751 0-.23501 0-.1175 0-.23502 0-.1175 0-.235 0-.1175 0-.235 0-.11752 0-.23503 0-.1175 0-.235 0-.1175 0-.23501 0-.11751 0-.23501 0-.11751 0-.23501 0-.11751 0-.23502 0-.11751 0-.23501 0-.1175 0-.23501 0-.11751 0-.23501 0-.11751 0-.23501 0-.11751 0-.23501 0-.1175 0-.23501 0-.11751 0-.23502 0-.1175 0-.235 0-.11751 0-.23501 0-.11751 0-.23501 0-.11751 0-.23501 0-.11751 0-.23502 0-.1175 0-.23501 0-.1175 0-.235 0-.11752 0-.23503 0-.1175 0-.235 0-.1175 0-.23501 0-.11751 0-.23501 0-.11751 0-.23501 0-.1175 0-.23502 0-.1175 0-.235 0-.1175 0-.23501 0-.11751 0-.23502 0-.1175 0-.235 0-.11751 0-.23501 0-.11752 0-.23502 0-.11751 0-.23501 0-.11751 0-.23501 0-.11751 0-.23501 0-.11751 0-.23501 0-.11751 0-.23501 0-.11751 0-.23501 0-.11751 0-.11751-.14358 0-.14358 0-.28716 0-.14359 0-.28718 0-.14357 0-.28715 0-.14359 0-.28718 0-.14356 0-.28716 0-.14358 0-.28715 0-.14359 0-.28717 0-.14359 0-.28717 0-.14358 0-.28716 0-.14358 0-.28717 0-.14357 0-.28716 0-.14358 0-.28716 0-.14358 0-.28717 0-.14358 0-.28716 0-.14359 0-.28716 0-.14358 0-.28718 0-.14357 0-.28715"/></g><path d="m-142.00627 157.04324v-9.87833h-2.33137v9.87833h-3.49705l4.66274 5.62261 4.66274-5.62261zm-8.15979-19.74257-4.66274 5.62262h3.49705v9.87833h2.33137v-9.87833h3.49706z" stroke="#bababa" stroke-width="2.278234"/></g></svg>