<?xml version="1.0" encoding="UTF-8"?>
<svg xmlns="http://www.w3.org/2000/svg" xmlns:xlink="http://www.w3.org/1999/xlink" width="45px" height="45px" viewBox="0 0 45 45" version="1.1">
<g id="surface1">
<path style="fill-rule:nonzero;fill:rgb(40.000001%,60.000002%,0%);fill-opacity:1;stroke-width:4.833;stroke-linecap:butt;stroke-linejoin:round;stroke:rgb(72.941178%,72.941178%,72.941178%);stroke-opacity:1;stroke-miterlimit:4;" d="M 30.057292 3.359375 C 44.786458 3.359375 56.640625 15.213542 56.640625 29.942708 C 56.640625 44.666667 44.786458 56.526042 30.057292 56.526042 C 15.333333 56.526042 3.473958 44.666667 3.473958 29.942708 C 3.473958 15.213542 15.333333 3.359375 30.057292 3.359375 Z M 30.057292 3.359375 " transform="matrix(0.75,0,0,0.75,0,0)"/>
<path style=" stroke:none;fill-rule:nonzero;fill:rgb(72.941178%,72.941178%,72.941178%);fill-opacity:1;" d="M 12.105469 21.558594 C 12.871094 20.863281 13.925781 20.695312 14.859375 20.546875 C 15.007812 20.523438 15.152344 20.5 15.292969 20.476562 C 15.398438 20.449219 15.535156 20.417969 15.671875 20.386719 C 16.914062 20.113281 17.792969 19.84375 17.796875 18.871094 C 17.800781 18.230469 17.578125 17.640625 17.34375 17.011719 C 17.078125 16.292969 16.800781 15.546875 16.84375 14.679688 C 16.929688 13.132812 17.613281 11.789062 18.683594 11.082031 C 19.109375 10.757812 19.671875 10.5625 20.203125 10.5625 C 20.996094 10.5625 21.589844 10.976562 21.832031 11.691406 C 22 12.175781 21.972656 12.648438 21.941406 13.144531 C 21.9375 13.265625 21.925781 13.394531 21.921875 13.523438 C 21.894531 14.210938 21.980469 14.777344 22.1875 15.3125 C 22.585938 16.378906 23.386719 17.375 24.035156 18.128906 L 24.394531 18.554688 C 24.890625 19.15625 25.40625 19.773438 25.988281 20.273438 C 26.277344 20.488281 26.585938 20.566406 26.976562 20.648438 C 27.089844 20.65625 33.863281 20.71875 33.863281 20.71875 L 33.863281 30.21875 C 33.863281 30.21875 28.550781 30.214844 28.253906 30.195312 C 27.988281 30.183594 27.738281 30.167969 27.507812 30.167969 L 27.398438 30.167969 C 27.179688 30.210938 26.957031 30.234375 26.726562 30.257812 C 26.523438 30.28125 26.3125 30.300781 26.089844 30.34375 C 25.839844 30.386719 25.578125 30.621094 25.328125 30.847656 C 25.183594 30.976562 25.042969 31.101562 24.902344 31.199219 C 24.757812 31.296875 24.621094 31.390625 24.476562 31.488281 C 24.042969 31.789062 23.59375 32.105469 23.082031 32.324219 C 22.453125 32.582031 21.757812 32.664062 21.085938 32.746094 C 20.757812 32.789062 20.433594 32.828125 20.121094 32.886719 C 19.917969 32.90625 19.742188 32.929688 19.566406 32.945312 C 19.039062 33.003906 18.496094 33.0625 17.949219 33.0625 C 17.582031 33.0625 17.253906 33.035156 16.953125 32.976562 C 15.878906 32.6875 15.191406 31.851562 15.191406 30.898438 C 14.644531 30.6875 14.15625 30.253906 13.847656 29.695312 C 13.570312 29.195312 13.476562 28.660156 13.578125 28.1875 C 12.539062 27.539062 12 26.324219 12.289062 25.277344 C 11.832031 24.976562 11.515625 24.472656 11.40625 23.859375 C 11.253906 23.007812 11.527344 22.105469 12.105469 21.558594 Z M 12.808594 23.460938 C 12.84375 23.753906 12.980469 24.117188 13.449219 24.195312 C 13.699219 24.265625 13.867188 24.40625 13.949219 24.601562 C 14.046875 24.835938 14.011719 25.132812 13.847656 25.386719 C 13.679688 25.578125 13.652344 25.980469 13.753906 26.328125 C 13.890625 26.742188 14.207031 27.035156 14.695312 27.191406 C 14.90625 27.214844 15.09375 27.355469 15.195312 27.5625 C 15.3125 27.804688 15.285156 28.0625 15.125 28.246094 C 14.988281 28.433594 15.015625 28.859375 15.203125 29.210938 C 15.355469 29.492188 15.570312 29.65625 15.78125 29.65625 C 15.8125 29.65625 15.839844 29.652344 15.871094 29.644531 L 15.902344 29.640625 L 15.9375 29.640625 C 16.195312 29.640625 16.53125 29.746094 16.695312 29.992188 C 16.804688 30.152344 16.820312 30.347656 16.738281 30.53125 C 16.636719 30.792969 16.648438 31.089844 16.773438 31.292969 C 16.867188 31.4375 17.011719 31.523438 17.210938 31.546875 C 17.5625 31.636719 17.914062 31.636719 18.253906 31.636719 C 19.265625 31.550781 20.335938 31.457031 21.371094 31.28125 L 21.863281 31.171875 C 22.121094 31.117188 22.375 31.066406 22.601562 31.011719 C 22.972656 30.835938 23.386719 30.539062 23.785156 30.25 C 23.917969 30.152344 24.050781 30.058594 24.175781 29.96875 C 24.269531 29.898438 24.371094 29.808594 24.476562 29.714844 C 24.738281 29.480469 25.035156 29.210938 25.402344 29.117188 C 25.75 28.910156 26.121094 28.910156 26.417969 28.910156 C 27.382812 28.828125 27.839844 28.492188 28.074219 27.6875 C 28.304688 26.875 28.3125 25.945312 28.300781 25.140625 L 28.296875 24.960938 C 28.289062 24.203125 28.277344 23.253906 27.871094 22.566406 C 27.667969 22.238281 27.261719 22.167969 26.796875 22.082031 C 26.148438 21.980469 25.640625 21.777344 25.164062 21.429688 C 25.097656 21.40625 25.027344 21.359375 24.976562 21.269531 C 24.78125 21.140625 24.621094 20.957031 24.476562 20.789062 C 23.710938 19.996094 23.007812 19.167969 22.453125 18.410156 C 22.324219 18.226562 22.195312 18.050781 22.066406 17.875 C 21.476562 17.074219 20.867188 16.242188 20.609375 15.21875 C 20.425781 14.464844 20.441406 13.8125 20.484375 13.042969 L 20.488281 12.925781 C 20.519531 12.457031 20.527344 11.949219 20.25 11.914062 C 20.230469 11.910156 20.207031 11.90625 20.1875 11.90625 C 19.734375 11.90625 19.164062 12.449219 18.828125 12.953125 C 18.472656 13.589844 18.289062 14.257812 18.308594 14.863281 C 18.328125 15.492188 18.542969 16.089844 18.769531 16.71875 C 19.039062 17.464844 19.316406 18.234375 19.25 19.074219 C 19.160156 20.214844 18.207031 21.203125 16.886719 21.53125 C 16.5 21.628906 16.089844 21.691406 15.695312 21.753906 C 14.957031 21.867188 14.191406 21.984375 13.570312 22.320312 C 13.164062 22.515625 12.730469 22.925781 12.808594 23.460938 Z M 12.808594 23.460938 "/>
</g>
</svg>
