<?xml version="1.0" encoding="UTF-8"?>
<svg xmlns="http://www.w3.org/2000/svg" xmlns:xlink="http://www.w3.org/1999/xlink" width="45px" height="45px" viewBox="0 0 45 45" version="1.1">
<g id="surface1">
<path style="fill-rule:nonzero;fill:rgb(80.000001%,0%,0%);fill-opacity:1;stroke-width:4.833;stroke-linecap:butt;stroke-linejoin:round;stroke:rgb(72.941178%,72.941178%,72.941178%);stroke-opacity:1;stroke-miterlimit:4;" d="M 30.057292 3.359375 C 44.786458 3.359375 56.640625 15.213542 56.640625 29.942708 C 56.640625 44.666667 44.786458 56.526042 30.057292 56.526042 C 15.333333 56.526042 3.473958 44.666667 3.473958 29.942708 C 3.473958 15.213542 15.333333 3.359375 30.057292 3.359375 Z M 30.057292 3.359375 " transform="matrix(0.75,0,0,0.75,0,0)"/>
<path style=" stroke:none;fill-rule:nonzero;fill:rgb(72.941178%,72.941178%,72.941178%);fill-opacity:1;" d="M 12.296875 23.402344 C 13.0625 24.097656 14.117188 24.269531 15.050781 24.414062 C 15.199219 24.4375 15.34375 24.460938 15.484375 24.488281 C 15.589844 24.515625 15.726562 24.542969 15.859375 24.574219 C 17.105469 24.847656 17.984375 25.117188 17.988281 26.089844 C 17.988281 26.730469 17.769531 27.320312 17.535156 27.949219 C 17.269531 28.671875 16.992188 29.414062 17.035156 30.28125 C 17.117188 31.828125 17.804688 33.171875 18.875 33.878906 C 19.300781 34.207031 19.859375 34.398438 20.394531 34.398438 C 21.1875 34.398438 21.78125 33.984375 22.023438 33.269531 C 22.191406 32.785156 22.164062 32.316406 22.132812 31.816406 C 22.125 31.695312 22.117188 31.570312 22.113281 31.4375 C 22.082031 30.753906 22.171875 30.1875 22.378906 29.652344 C 22.777344 28.582031 23.574219 27.585938 24.226562 26.835938 L 24.582031 26.40625 C 25.082031 25.808594 25.597656 25.1875 26.179688 24.691406 C 26.46875 24.472656 26.773438 24.394531 27.167969 24.3125 C 27.28125 24.304688 34.054688 24.242188 34.054688 24.242188 L 34.054688 14.742188 C 34.054688 14.742188 28.742188 14.75 28.441406 14.765625 C 28.179688 14.78125 27.929688 14.792969 27.695312 14.792969 L 27.589844 14.792969 C 27.371094 14.75 27.148438 14.726562 26.917969 14.703125 C 26.714844 14.683594 26.5 14.660156 26.277344 14.621094 C 26.027344 14.574219 25.769531 14.339844 25.519531 14.113281 C 25.375 13.984375 25.234375 13.859375 25.09375 13.761719 C 24.949219 13.667969 24.808594 13.570312 24.667969 13.472656 C 24.234375 13.171875 23.785156 12.855469 23.273438 12.640625 C 22.644531 12.382812 21.949219 12.296875 21.277344 12.214844 C 20.949219 12.171875 20.625 12.136719 20.3125 12.074219 C 20.109375 12.054688 19.933594 12.035156 19.757812 12.015625 C 19.230469 11.957031 18.6875 11.898438 18.140625 11.898438 C 17.769531 11.898438 17.445312 11.925781 17.144531 11.984375 C 16.070312 12.273438 15.382812 13.109375 15.382812 14.066406 C 14.835938 14.273438 14.347656 14.707031 14.039062 15.265625 C 13.761719 15.765625 13.667969 16.300781 13.769531 16.773438 C 12.730469 17.421875 12.191406 18.636719 12.480469 19.683594 C 12.023438 19.984375 11.707031 20.488281 11.597656 21.101562 C 11.445312 21.953125 11.71875 22.855469 12.296875 23.402344 Z M 12.996094 21.5 C 13.03125 21.207031 13.171875 20.847656 13.640625 20.765625 C 13.890625 20.695312 14.058594 20.554688 14.140625 20.359375 C 14.238281 20.125 14.203125 19.828125 14.039062 19.574219 C 13.871094 19.382812 13.84375 18.984375 13.945312 18.636719 C 14.082031 18.222656 14.398438 17.929688 14.886719 17.769531 C 15.097656 17.746094 15.285156 17.609375 15.386719 17.398438 C 15.503906 17.15625 15.476562 16.898438 15.316406 16.71875 C 15.179688 16.527344 15.203125 16.101562 15.394531 15.75 C 15.546875 15.472656 15.761719 15.304688 15.972656 15.304688 C 16 15.304688 16.03125 15.308594 16.0625 15.316406 L 16.09375 15.320312 L 16.128906 15.320312 C 16.386719 15.320312 16.722656 15.214844 16.886719 14.96875 C 16.996094 14.808594 17.011719 14.613281 16.929688 14.433594 C 16.828125 14.171875 16.835938 13.871094 16.964844 13.671875 C 17.058594 13.523438 17.203125 13.4375 17.402344 13.414062 C 17.753906 13.324219 18.105469 13.324219 18.445312 13.324219 C 19.453125 13.410156 20.527344 13.503906 21.5625 13.683594 L 22.054688 13.789062 C 22.3125 13.84375 22.566406 13.894531 22.792969 13.949219 C 23.160156 14.125 23.578125 14.421875 23.976562 14.714844 C 24.109375 14.808594 24.238281 14.902344 24.367188 14.992188 C 24.460938 15.0625 24.5625 15.152344 24.667969 15.246094 C 24.929688 15.484375 25.226562 15.75 25.59375 15.847656 C 25.941406 16.050781 26.308594 16.050781 26.609375 16.050781 C 27.574219 16.136719 28.03125 16.46875 28.265625 17.273438 C 28.496094 18.089844 28.503906 19.015625 28.492188 19.820312 L 28.488281 20 C 28.480469 20.757812 28.46875 21.707031 28.0625 22.394531 C 27.859375 22.722656 27.453125 22.792969 26.984375 22.878906 C 26.339844 22.980469 25.832031 23.183594 25.355469 23.53125 C 25.285156 23.554688 25.21875 23.601562 25.164062 23.691406 C 24.972656 23.820312 24.8125 24.003906 24.667969 24.171875 C 23.902344 24.964844 23.199219 25.792969 22.644531 26.554688 C 22.515625 26.734375 22.386719 26.910156 22.257812 27.085938 C 21.667969 27.890625 21.058594 28.71875 20.800781 29.742188 C 20.617188 30.496094 20.632812 31.148438 20.675781 31.921875 L 20.679688 32.035156 C 20.710938 32.507812 20.71875 33.011719 20.441406 33.050781 C 20.421875 33.050781 20.398438 33.054688 20.375 33.054688 C 19.925781 33.054688 19.355469 32.511719 19.019531 32.007812 C 18.664062 31.371094 18.480469 30.703125 18.5 30.097656 C 18.519531 29.46875 18.734375 28.875 18.960938 28.242188 C 19.230469 27.5 19.507812 26.726562 19.441406 25.886719 C 19.351562 24.746094 18.398438 23.757812 17.078125 23.429688 C 16.691406 23.335938 16.28125 23.269531 15.882812 23.210938 C 15.144531 23.09375 14.382812 22.976562 13.761719 22.644531 C 13.355469 22.449219 12.921875 22.039062 12.996094 21.5 Z M 12.996094 21.5 "/>
</g>
</svg>
