<?xml version="1.0" encoding="UTF-8"?>
<svg xmlns="http://www.w3.org/2000/svg" xmlns:xlink="http://www.w3.org/1999/xlink" width="192px" height="192px" viewBox="0 0 192 192" version="1.1">
<g id="surface1">
<path style=" stroke:none;fill-rule:evenodd;fill:rgb(72.941178%,72.941178%,72.941178%);fill-opacity:1;" d="M 183.34375 98.378906 C 182.789062 100.21875 181.570312 101.5625 180.261719 102.890625 C 171.515625 111.78125 162.796875 120.699219 154.066406 129.609375 C 150.921875 132.816406 147.5625 132.808594 144.402344 129.585938 C 135.394531 120.390625 126.386719 111.199219 117.378906 102.003906 C 114.3125 98.871094 114.3125 95.449219 117.390625 92.308594 C 126.445312 83.0625 135.503906 73.816406 144.5625 64.574219 C 147.511719 61.5625 150.976562 61.5625 153.921875 64.570312 C 162.707031 73.527344 171.476562 82.5 180.273438 91.4375 C 181.582031 92.765625 182.792969 94.121094 183.34375 95.960938 Z M 183.34375 98.378906 "/>
<path style=" stroke:none;fill-rule:evenodd;fill:rgb(72.941178%,72.941178%,72.941178%);fill-opacity:1;" d="M 96.511719 184.507812 C 94.714844 183.925781 93.414062 182.65625 92.117188 181.328125 C 83.410156 172.402344 74.671875 163.503906 65.945312 154.59375 C 62.820312 151.402344 62.816406 148 65.933594 144.820312 C 74.96875 135.601562 84 126.382812 93.035156 117.164062 C 96.039062 114.101562 99.480469 114.089844 102.46875 117.136719 C 111.5 126.355469 120.535156 135.574219 129.566406 144.796875 C 132.667969 147.964844 132.679688 151.433594 129.589844 154.585938 C 120.785156 163.574219 111.96875 172.550781 103.183594 181.554688 C 101.925781 182.84375 100.632812 184.003906 98.882812 184.507812 Z M 96.511719 184.507812 "/>
<path style=" stroke:none;fill-rule:evenodd;fill:rgb(72.941178%,72.941178%,72.941178%);fill-opacity:1;" d="M 64.808594 75.078125 C 64.808594 64.828125 64.902344 54.578125 64.753906 44.332031 C 64.710938 41.363281 65.40625 39.046875 67.625 37.089844 C 69.414062 35.515625 70.996094 33.699219 72.671875 31.988281 C 79.292969 25.230469 85.914062 18.46875 92.539062 11.710938 C 95.652344 8.535156 99.011719 8.539062 102.125 11.714844 C 111.132812 20.902344 120.144531 30.097656 129.152344 39.289062 C 132.246094 42.449219 132.242188 45.921875 129.148438 49.082031 C 118.496094 59.957031 107.839844 70.832031 97.183594 81.710938 C 87.773438 91.316406 78.363281 100.921875 68.953125 110.527344 C 67.207031 112.304688 65.664062 111.890625 65.03125 109.425781 C 64.835938 108.660156 64.820312 107.835938 64.820312 107.035156 C 64.804688 96.382812 64.808594 85.730469 64.808594 75.078125 "/>
<path style=" stroke:none;fill-rule:evenodd;fill:rgb(72.941178%,72.941178%,72.941178%);fill-opacity:1;" d="M 43.265625 97.289062 C 43.265625 106.695312 43.277344 116.105469 43.246094 125.511719 C 43.242188 126.40625 43.105469 127.351562 42.789062 128.179688 C 42.175781 129.8125 41.019531 130.015625 39.808594 128.785156 C 35.566406 124.464844 31.335938 120.132812 27.101562 115.808594 C 22.207031 110.808594 17.3125 105.808594 12.421875 100.808594 C 10.394531 98.738281 10.386719 95.863281 12.402344 93.785156 C 21.414062 84.492188 30.421875 75.199219 39.4375 65.914062 C 40.035156 65.296875 40.597656 64.464844 41.609375 64.855469 C 42.578125 65.226562 42.960938 66.117188 43.097656 67.105469 C 43.183594 67.71875 43.25 68.339844 43.253906 68.957031 C 43.261719 78.402344 43.257812 87.847656 43.257812 97.289062 Z M 43.265625 97.289062 "/>
</g>
</svg>
