<?xml version="1.0" encoding="UTF-8" standalone="no"?>
<svg
   height="800"
   viewBox="0 0 800 800"
   width="800"
   version="1.1"
   id="svg6"
   sodipodi:docname="no_coverArt.svg"
   inkscape:version="1.1.1 (3bf5ae0d25, 2021-09-20)"
   xmlns:inkscape="http://www.inkscape.org/namespaces/inkscape"
   xmlns:sodipodi="http://sodipodi.sourceforge.net/DTD/sodipodi-0.dtd"
   xmlns="http://www.w3.org/2000/svg"
   xmlns:svg="http://www.w3.org/2000/svg">
  <defs
     id="defs10" />
  <sodipodi:namedview
     id="namedview8"
     pagecolor="#ffffff"
     bordercolor="#666666"
     borderopacity="1.0"
     inkscape:pageshadow="2"
     inkscape:pageopacity="0.0"
     inkscape:pagecheckerboard="0"
     showgrid="false"
     inkscape:zoom="0.6275"
     inkscape:cx="399.20319"
     inkscape:cy="400"
     inkscape:window-width="1280"
     inkscape:window-height="730"
     inkscape:window-x="-6"
     inkscape:window-y="-6"
     inkscape:window-maximized="1"
     inkscape:current-layer="svg6" />
  <path
     d="m 87.89442,88.556916 h 273.1551 V 10.730448 H 87.89442 c -43.119463,0 -78.0442927,34.827339 -78.0442927,77.826468 V 360.94955 H 87.89442 Z M 712.2489,10.730448 H 439.09382 V 88.556916 H 712.2489 V 360.94955 h 78.0443 V 88.556916 c 0,-42.999129 -34.92481,-77.826468 -78.0443,-77.826468 z m 0,700.438172 H 439.09382 v 77.82647 H 712.2489 c 43.11949,0 78.0443,-34.82737 78.0443,-77.82647 V 438.77602 H 712.2489 Z M 87.89442,438.77602 H 9.8501273 v 272.3926 c 0,42.9991 34.9248297,77.82647 78.0442927,77.82647 h 273.1551 V 711.16862 H 87.89442 Z"
     fill="#bababa"
     stroke-width="19.4838"
     id="path2"
     sodipodi:nodetypes="cccsscccscccccsscccsscccccsscccc" />
  <path
     d="m-4 756h48v48h-48z"
     fill="none"
     id="path4" />
</svg>
