<svg height="256" viewBox="0 0 256 256" width="256" xmlns="http://www.w3.org/2000/svg"><g stroke="#bababa" transform="matrix(1.0266703 0 0 1.0284542 -.376894 -3.571365)"><ellipse cx="126.08838" cy="129.05194" fill="none" rx="106.55238" ry="106.34964" stroke-linejoin="round" stroke-width="19.463549"/><g fill="none" stroke="#bababa" transform="matrix(3.35660781918 0 0 3.33669634629 284.82330962784 -3298.01216177845)"><path d="m-36.860545 1025.8489a10.137028 10.137028 0 0 1 -10.137028 10.137 10.137028 10.137028 0 0 1 -10.137028-10.137 10.137028 10.137028 0 0 1 10.137028-10.1371 10.137028 10.137028 0 0 1 10.137028 10.1371z" stroke-width="1.489163"/><path d="m-41.162298 1025.8489a5.835268 5.835268 0 0 1 -5.835268 5.8352 5.835268 5.835268 0 0 1 -5.835268-5.8352 5.835268 5.835268 0 0 1 5.835268-5.8353 5.835268 5.835268 0 0 1 5.835268 5.8353z" stroke-width="3.333327"/></g><path d="m895.40387 361.88242s73.62094 3.10076 75.19504-23.5917c1.27018-21.64761-51.01409-19.5904-51.06139-19.5904-.0518 0-.41148.0611-.41148.3493 0 .26619.18924.34934.37415.34934 14.50399 0 38.09141 5.97308 37.32155 18.91451-.62078 10.54601-19.02276 22.88526-61.3964 22.88526-.24947 0-.42007.17745-.42007.34378 0 .17188.10188.32162.39862.35487m-5.43057-23.05492c0-.95595 5.55242-2.29506 14.59717-2.29506 9.04757 0 14.59428 1.33911 14.59428 2.29506 0 .95871-5.54671 2.28731-14.59428 2.28731-9.04475 0-14.59717-1.3286-14.59717-2.28731zm-5.77033-16.52404c-.0615 0-.11755.0553-.15343.0886-4.27363 6.24141-6.85846 10.47447-9.53216 15.6058l-.26669.56445-.0782.17746c-.22678.49906-.17374 1.0502.15129 1.57421 1.58271 2.56679 10.45397 5.56551 30.24945 5.56551 14.76204 0 30.45021-2.47195 30.45021-7.056 0-4.42821-15.48315-7.06762-30.45021-7.06762-4.96751 0-9.88627.72749-11.307.95761 1.35622-2.1653 6.97315-10.01203 7.03194-10.09576.025-.0609.0414-.0776.0414-.11644 0-.0553-.0144-.0553-.0261-.0886-.0329-.072-.10041-.10535-.16769-.10535h-15.94325" fill="#bababa" stroke="none" transform="matrix(1.04275256388 0 0 1.04270164122 -828.99671077772 -161.9833755385)"/></g></svg>