<svg height="256" viewBox="0 0 256 256" width="256" xmlns="http://www.w3.org/2000/svg"><path d="m-.60812785 13.422348v-9.7859672l.8915565-.1094013c.49035819-.0601709 2.13162235-.0707395 3.64725355-.0234882 3.0582793.0953478 4.5333998.377111 6.2232638 1.1887093l.957631.4599244.10014 1.0413295c.10284 1.0694669.140193 3.4293685.05428 3.4293685-.02645 0-.391474-.3140532-.811157-.6978949-.908565-.8309622-2.65592-1.7077848-3.8290862-1.9214306-.4647416-.0846335-1.541269-.1538804-2.3922851-.1538804h-1.5472986v6.4708169 6.470813h1.85398c2.881826 0 4.4191044-.573603 6.1483389-2.294122 1.712199-1.703571 2.220103-3.097081 2.193305-6.017655-.009-.978788-.01234-3.1835485-.0077-4.8994701l.0087-3.1198578h9.732627c10.568382 0 11.397312.055451 12.802087.8563891 1.057071.6026921 1.898637 1.6672971 2.271799 2.8738895.445153 1.4393746.371242 3.8265583-.154027 4.9745103-.494857 1.081506-1.439218 1.96493-2.720505 2.544956-.963156.436012-1.326643.509268-3.080183.620766-1.093485.06952-2.005806.130976-2.027376.136558-.02158.0056-.03923 1.743405-.03923 3.861826v3.851675h-1.882523-1.882454v-5.623446-5.623447l3.255077-.0087c3.559131-.0095 4.121035-.107566 4.652243-.81198.471736-.625549.481422-2.8304035.01469-3.3443193-.760365-.8373161-.76842-.8380751-9.45141-.890624l-8.039655-.048661v3.1513963c0 2.213715-.07327 3.534657-.246247 4.439468-.738939 3.865261-3.955193 7.240026-7.9894867 8.383246-.7404813.209835-1.7693023.281434-4.8237889.335695l-3.88255925.06898zm13.49091785 9.330835c0-.327777.276121-.696267 1.183342-1.579188.650838-.633405 1.409705-1.497872 1.686366-1.921038l.503022-.769391.04823.65384.04823.653841h3.912761 3.912758v1.694739 1.694738h-5.647344-5.64736zm4.990511-9.121333-.04908-1.698649 2.789773.000308 2.789769.000309-.04452 1.65622-.04453 1.656221-2.696174.04212-2.696177.04211z" fill="#bababa" stroke-width=".155463" transform="matrix(6.5123338 0 0 6.5123338 6.72158 49.851994)"/></svg>