<svg height="256" viewBox="0 0 256 256" width="256" xmlns="http://www.w3.org/2000/svg"><path d="m108.81259 222.02005-27.353627-27.39522-4.78956 4.76775-4.78956 4.76773-31.80877-31.85544-31.8087703-31.85545 27.6715903-27.71353 27.67159-27.713524-4.91735-4.95288-4.91734-4.95287 31.81355-31.85068 31.813567-31.85068 27.84618 27.87745 27.84618 27.87745 4.77279-4.77907 4.77278-4.77907 31.81323 31.85991 31.81323 31.859914-27.67109 27.71302-27.67109 27.71302 4.59821 4.6352 4.59821 4.63521-31.65655 31.69348c-17.41111 17.43142-31.79993 31.69349-31.97516 31.69349s-12.62774-12.32784-27.67224-27.39521zm30.60577-68.34848c21.48452-12.35428 39.05981-22.6057 39.0562-22.78094-.006-.27504-76.88283-44.562384-78.35219-45.137074-.298697-.11683-.543087 20.170964-.543087 45.083974 0 24.913.17467 45.29637.38817 45.29637.213477 0 17.966397-10.10805 39.450907-22.46233z" fill="#bababa" stroke-width=".63681"/></svg>