<svg height="256" width="256" xmlns="http://www.w3.org/2000/svg"><path d="m1098.9299 1391.3661c-25.5712-3.0026-49.8008-11.6263-71.0316-25.2815l-4.2445-2.7299.3798-3.1116c1.5772-12.9222 11.6215-32.1786 23.3304-44.7273 12.6582-13.5663 29.847-23.6062 46.9382-27.4165 12.0039-2.6762 27.8869-2.9399 39.7297-.6597 12.8953 2.4828 27.2286 8.9108 37.9839 17.0344 17.0733 12.8958 31.2277 34.5501 34.917 53.4182 1.1785 6.0273 1.9529 4.982-8.2882 11.188-17.1136 10.3706-37.7204 17.7899-59.3318 21.3619-7.7586 1.2823-32.5082 1.8486-40.3829.924zm-99.48052-48.374c-5.71265-5.5708-13.41021-14.7856-19.18273-22.9637-31.1608-44.1465-41.50437-100.5099-28.28466-154.1269 16.84677-68.3278 70.27431-120.0163 136.07551-131.6465 40.2255-7.1096 82.1689 1.7262 116.9367 24.6341 35.5804 23.4431 62.0526 60.6861 73.5089 103.4173 4.7179 17.5977 6.4079 30.6577 6.4079 49.5193 0 14.9959-.6473 21.9972-3.3834 36.5964-4.9327 26.3197-17.5388 55.0705-33.1684 75.6474-6.0052 7.9059-12.4653 15.3846-16.5575 19.168l-3.4981 3.2342-2.0274-5.754c-2.3469-6.6608-6.6865-16.1112-9.697-21.1178-1.1507-1.9136-2.0921-3.7102-2.0921-3.9927 0-.2823 1.1429-1.6879 2.5398-3.1233 7.5651-7.7743 16.9613-22.4195 23.2789-36.2831 9.1124-19.9969 13.0336-36.9493 13.7551-59.4663 1.3181-41.1352-12.9914-79.6279-40.4947-108.9312-34.579-36.8421-84.2493-51.3597-132.1167-38.615-35.0885 9.3422-66.1476 34.1144-85.04652 67.8315-21.16783 37.765-25.06564 85.0061-10.44851 126.6361 6.20796 17.6806 18.23723 38.3404 28.43033 48.828 1.3951 1.4354 2.5367 2.841 2.5367 3.1233 0 .2825-.9415 2.0791-2.0921 3.9927-3.1813 5.2906-7.5013 14.7527-9.4258 20.6458-.9487 2.9052-1.8905 5.4781-2.0929 5.7175-.2024.2395-1.94-1.0975-3.86132-2.9711zm31.38582-51.8002c-12.7526-15.5351-21.85-35.0393-25.6951-55.0883-5.1506-26.8558-1.5256-54.6798 10.3026-79.0792 13.1272-27.079 35.4908-47.9233 62.3637-58.127 49.1873-18.6766 104.0685 1.0787 132.5804 47.724 13.2868 21.7371 19.9692 49.6149 17.8698 74.5489-1.7135 20.3486-7.0109 37.6168-16.5644 53.9946-4.2113 7.2197-13.0859 19.1929-14.2257 19.1929-.4289 0-1.4576-.774-2.2859-1.72-2.3915-2.7311-13.2883-11.2579-18.2488-14.2798l-4.5327-2.7613 4.3329-5.2257c9.5019-11.4596 15.1152-22.8077 18.966-38.3424 1.5047-6.0704 1.6551-7.7913 1.6784-19.2125.02-9.7387-.2282-13.8003-1.109-18.1571-3.4856-17.2413-10.8209-31.8524-22.0746-43.97-11.1629-12.02-23.8117-19.6128-39.8127-23.899-5.9904-1.6046-7.6144-1.7574-18.6758-1.7574-11.0615 0-12.6854.1528-18.6758 1.7574-15.8643 4.2496-27.7007 11.2743-38.9983 23.1448-16.8978 17.7548-25.2559 40.6177-24.1659 66.1035.8828 20.637 7.5118 37.9255 20.8161 54.2875l4.2978 5.2858-4.7198 2.9207c-5.1992 3.2173-15.6668 11.4063-18.0304 14.1055-.8284.946-1.8069 1.7067-2.1745 1.6903-.3675-.017-1.8158-1.4277-3.2183-3.1362zm74.7119-22.9336c-18.9061-3.8045-34.7307-18.7158-41.1528-38.7777-4.678-14.6137-2.661-32.8349 5.2063-47.0331 3.8666-6.978 11.894-15.5091 18.46-19.6182 24.2685-15.1879 55.9048-7.9897 71.7164 16.3176 6.8162 10.4786 9.6411 20.0856 9.6092 32.6788-.032 12.7695-3.1452 23.2716-9.883 33.343-2.9145 4.3564-8.5167 10.4117-12.5043 13.5157-3.8908 3.0286-11.7961 7.0262-17.0053 8.5994-6.1948 1.8709-17.7109 2.3299-24.4465.9745z" fill="#bababa" stroke-width=".64047" transform="matrix(.70889797871 0 0 .66672916302 -663.09332174647 -679.37599824676)"/></svg>