<svg height="256" viewBox="0 0 256 256" width="256" xmlns="http://www.w3.org/2000/svg"><path d="m42.935108 42.176642c-3.496421-.43388-4.57288-.632719-6.144584-1.134971-2.292638-.73264-6.52726-2.672874-7.891473-3.615754-.6617-.45733-1.654249-1.126215-2.205658-1.486413-1.156834-.75566-4.133576-3.532358-5.66114-5.280689-2.296788-2.628706-4.7603-7.121876-5.960989-10.872085-.1713-.535423-.3955-1.236338-.498-1.557593-.172599-.54104-.40375-1.608471-.822179-3.796628-.2402-1.256134-.226849-6.7007709.0195-8.0800004.11495-.6425102.25285-1.4748453.306599-1.8496455.186651-1.3026749.874505-3.4942849 1.974389-6.2913648.678509-1.7255051 1.312899-2.928745 2.421357-4.59257.49575-.74411.90136-1.414965.90136-1.4907851 0-.0758.862364-1.130245 1.916333-2.3431652 1.765234-2.031414 3.564972-3.675295 5.61076-5.124869l.809819-.573821 2.899703 2.830875c1.594843 1.556986 2.795852 2.869581 2.668907 2.91688-1.267079.4722003-6.547699 5.4106353-7.306254 6.8328402-.15575.2919001-.658653 1.1284952-1.117749 1.8591501-2.530007 4.0265499-3.801751 10.3634044-2.996901 14.9329817.646169 3.668561 1.083938 5.163968 2.080378 7.106511 3.121367 6.085075 7.890783 10.398378 13.773146 12.456032 3.992458 1.396553 4.835356 1.542152 8.931923 1.542907 4.103956.000809 4.53788-.07259 8.644257-1.461127 6.019254-2.035368 10.842054-6.314903 14.009027-12.430981 1.490383-2.878249 2.546427-7.906456 2.350413-11.1910443-.245898-4.1200449-1.407638-8.0785646-3.21517-10.9552794-.4591-.7306549-.96209-1.567275-1.117749-1.8591501-.75886-1.42279-6.044445-6.3654399-7.306254-6.8322102-.12705-.047 1.069465-1.358835 2.658662-2.91529l2.889464-2.82992 1.521858 1.127755c1.562649 1.15797 4.259791 3.794905 5.799194 5.6697552 3.069379 3.7382451 5.508508 9.26105003 6.462125 14.6319596.774324 4.3610202.359344 9.7890762-1.084723 14.1895192-1.015277 3.093718-1.838966 4.818342-3.663996 7.671536-2.40721 3.763323-5.517167 6.918924-9.433189 9.571686-3.053572 2.068511-8.418532 4.310647-11.395644 4.762487-5.107935.775241-7.488183.876908-10.82782.46248zm-.856619-37.7711887.05465-7.885375-.852185.0000699-.852188.00006v-9.1508452-9.15085l.751919-.00035.751924-.00035-.0616 2.43409-.06155 2.434085h.613004.613006v-3.40723-3.407235h.601549.601534v3.407235 3.40723h.601555.601529v-3.40723-3.407235h.601554.601555v3.407235 3.40723h.610479.610474l-.059-3.407475-.059-3.40747.651675.000235.651679.000245v3.407235 3.40723h.501285.501289v-3.40723-3.407235h.601554.60153v3.407235 3.40723h.601554.601535v-2.43374-2.433735h.701794.701825v9.15085 9.1508452h-.802056-.802065v7.8853096 7.8853032h-5.117545-5.117575z" fill="#bababa" stroke-width=".197585" transform="matrix(3.7795276 0 0 3.7795276 -48.675577 93.13243)"/></svg>