<svg height="256" viewBox="0 0 256 256" width="256" xmlns="http://www.w3.org/2000/svg"><path d="m143.32302 16.985336a9.8929759 10.081965 0 0 1 9.89298-10.0819663h29.68356a9.8929759 10.081965 0 0 1 9.89298 10.0819663v30.250617a9.8952959 10.084329 0 1 1 -19.79059 0v-20.163931h-19.78595a9.8929759 10.081965 0 0 1 -9.89298-10.086686zm96.04489 228.968824a9.8929759 10.081965 0 0 1 -13.99302 0l-36.67311-37.37368a68.736009 70.049092 0 0 1 -35.48578 10.07723c-38.18513 0-69.26012-31.66861-69.26012-70.58321 0-38.91458 31.07499-70.5832 69.26012-70.5832 38.18512 0 69.2601 31.66862 69.2601 70.5832a68.916893 70.233432 0 0 1 -18.35743 47.70146l35.24924 35.92261a9.8929759 10.081965 0 0 1 0 14.25559zm-56.46835-97.87966a9.8929759 10.081965 0 0 0 -9.89298-10.08669h-9.89297v-10.08196a9.8952959 10.084329 0 0 0 -19.79059 0v10.08196h-9.89298a9.895295 10.084328 0 1 0 0 20.16865h9.89298v10.08197a9.8952959 10.084329 0 1 0 19.79059 0v-10.08197h9.89297a9.8929759 10.081965 0 0 0 9.89298-10.08196zm-128.627242-141.1711303h-29.683572a9.8929759 10.081965 0 0 0 -9.89297 10.0819663v30.250617a9.895295 10.084328 0 1 0 19.790583 0v-20.163931h19.785959a9.895295 10.084328 0 0 0 0-20.1686523zm0 161.3350603h-19.790592v-20.16393a9.895296 10.084329 0 1 0 -19.790592 0v30.25063a9.8929759 10.081965 0 0 0 9.897612 10.08196h29.683572a9.8952984 10.084331 0 0 0 0-20.16866zm-29.683572-50.41455a9.8929759 10.081965 0 0 0 9.89298-10.08196v-20.168654a9.895296 10.084329 0 1 0 -19.790592 0v20.168654a9.8929759 10.081965 0 0 0 9.897612 10.08196zm69.260114-90.751858h19.79059a9.895295 10.084328 0 0 0 0-20.1686523h-19.79059a9.895295 10.084328 0 0 0 0 20.1686523z" fill="#bababa"/></svg>