<svg height="50" viewBox="0 0 50 50" width="50" xmlns="http://www.w3.org/2000/svg"><path d="m-4 756h48v48h-48z" fill="none"/><g fill="#bababa"><rect fill="#bababa" height="48" rx="4.898504" ry="5.35726" width="48" x=".951206" y="1.087454"/><path d="m37.906703 30.121961q1.946764 0 2.331004-1.452485.102574-.602906.102574-1.58951v-9.34518h3.329986v10.030316q0 2.740529-1.331985 4.275217-.691624.822171-1.793082 1.151034-1.101459.301454-3.073833.301454h-26.639938q-2.5102995 0-4.0984628-1.479885-1.6906145-1.589492-1.6649914-4.24782 0-2.46647 1.5369162-4.110785 1.5625393-1.671725 3.893532-1.671725l21.286344-.05488q1.511293.109461 1.511293 1.699134 0 1.699121-1.588135 1.699121-.05121 0-.128111 0-.05121-.02729-.102575-.02729l-20.492242-.02744q-2.843321 0-2.7664645 2.411665.051212 2.43906 3.0482245 2.43906z" fill="#696969" stroke-width=".396938"/></g></svg>