<svg height="256" width="256" xmlns="http://www.w3.org/2000/svg"><g transform="matrix(1.035881 0 0 1.1104354 9.779911 21.098919)"><path d="m192.89916 100.75902 9.5-17.199994c-7.2-7.5-19.1-19.2-39.1-37.7-46.6-43.2-49.4-43-50.5-43-1.2 0-3.4-.8-49.800007 42.9-52.199999 49.099997-50.4 50.799997-50.4 50.799997s-1.599999 2.700001 50.9 51.199997c47.100007 43.6 48.000007 42.4 49.300007 42.4s4.1.7 50.6-43c25.1-23.6 37.6-36.2 43.7-42.9z" fill="#696969"/><path d="m178.89292 65.099998h2.6v10.1h-2.6z" fill="#ffe500"/><g fill="#696969"><path clip-rule="evenodd" d="m100.09293 62.8 12.2-.1v59h-17.399997l-.1-48.3 7.499997-1.8z" fill-rule="evenodd"/><path clip-rule="evenodd" d="m41.992933 75.5c7.2-.3 17.7-.8 24.3 0 8.4 1 19.4 3.2 20.3 15 .4 5.6-1.5 10.4-9.4 16.7 0 0 8 8.7 15.3 17 0 0-9.1 8.6-14.1 12.7l-17.9-29.7c4-3.1 8.8-7.6 8.8-12.9 0-5.1-4.8-7.5-6.5-7.5h-3.7v49.6h-17.1z" fill-rule="evenodd"/><path clip-rule="evenodd" d="m166.99293 89.5h-16.7v46.6h-17.7v-46.6h-16.8v-15h51.2z" fill-rule="evenodd"/><path d="m35.392933 60.1-.1 14.9h-18.1v13.8l16.7-.1v14.2h-16.4v23.9h-17.99999965v-65.9c17.99999965-.8 35.89999965-.8 35.89999965-.8z"/><path clip-rule="evenodd" d="m233.09293 98.1 4.6-29.9-14.4-1.2-1.8 30.7z" fill-rule="evenodd"/><path d="m216.29293 104.3 9.1-7.4 9.6 12-9.1 7.3-7.3-9.1z"/></g><path clip-rule="evenodd" d="m108.29293 56.3v62h-20.399997l-.1-51 7.2-1.8-2.3-9.2z" fill="#bababa" fill-rule="evenodd"/><path clip-rule="evenodd" d="m125.59293 86.1s-15.2.4-15.1.4l-1.7.2v-18.6h54.3v18.6h-1.8l-14.9-.6v46.6h-20.7v-46.6z" fill="#bababa" fill-rule="evenodd"/><path clip-rule="evenodd" d="m161.99293 53.3h.6c5.9 0 23-.3 46.2 1l2.6.2-24.4 45.4c5 .1 11.5.2 20.1-.4l1.9-.1v18.4s-47.4 0-48.2 0h-3.6l24.3-46.6c-5.2 0-11.4 0-18.9.4l-.7.1v-18.4z" fill="#696969" fill-rule="evenodd"/><path d="m31.392933 55v16.7h-1.7-16.5v10.2l16.7-.1v17.4h-1.7-14.7v23.9h-20.9999996v-68.5l1.4-.1c17.9999996-.8 36.9999996-.7 36.9999996-.7" fill="#bababa"/><path clip-rule="evenodd" d="m55.092933 100.4c3.7-3.1 7.3-6.8 7.3-11.1 0-4.1-3.9-6-5.1-6h-2.2zm5.9-31.3c8.2 1 20.6 3.3 21.6 16.4.4 5.9-1.6 10.9-8.7 17l15.3 17.9-.9.9c-4.2 4.3-8.9 8.4-13.9 12.4l-1.3 1.1-17.9-29.7v27.8h-20.2v-63.7l1.4-.1c7.3-.3 17.9-.7 24.6 0z" fill="#bababa" fill-rule="evenodd"/><path clip-rule="evenodd" d="m234.29293 64-5.1 32.9-14.5-.5 2-33.8z" fill="#bababa" fill-rule="evenodd"/><path d="m231.59293 106.5-9.3-11.5-11.5 9.3h-1.8v1.8c-8.2.4-14.4.2-18.9.1l24.5-45.5c-23.2-1.3-40-1-52.2-.7v15.3c15.1-.8 21.6-.7 27.2-.8l-24.2 46.6h1.1 46.7v-14l7 8.7z" fill="#bababa"/></g></svg>