<svg height="35" width="80" xmlns="http://www.w3.org/2000/svg"><text x="6.606521" y="10.002353"><tspan x="6.606521" y="76.29718"/></text><g fill="#fff"><path d="m12.088877 32.561511c-5.2171483-4.305418-8.6661398-8.862444-10.1613241-13.425788-1.00385902-3.063809-1.17806677-5.908393-.5254527-8.58002.4541091-1.8590039 1.0273472-2.9309057 2.3157646-4.3302796 2.3239723-2.5240924 5.595633-3.868511 10.3494102-4.252843 5.431076-.4390955 13.918154 1.2364408 21.564514 4.2573033l1.72403.6811199v1.0215497c0 .5711232-.0475 1.0215414-.107734 1.0215414-.05925 0-.707883-.2256109-1.441404-.5013596-4.221997-1.5871762-8.667718-2.7875187-12.356163-3.336176-1.723352-.2563449-5.270516-.3459475-6.754366-.1706125-1.661883.1963674-3.547237.6933302-4.694726 1.2374774-2.6820502 1.2718479-4.2001424 2.9736578-4.9115986 5.505975-.3900612 1.388364-.480229 3.776623-.2019092 5.347938.8753535 4.942003 4.6703778 10.349437 10.6329458 15.150634.556559.448156 1.08642.8865 1.177468.974107.141667.136318-.257758.158309-2.769755.152536l-2.935292-.0065-.904411-.74636zm9.733815-.212588c-7.329485-5.715023-10.62402-11.968146-9.224012-17.507448.328863-1.30119.892944-2.241041 2.022947-3.370568 1.901112-1.9003147 4.247757-2.8329284 7.762438-3.0849753 3.890031-.2789666 9.555125.7197731 14.378236 2.5348543l.593518.223359v.977515c0 .954456-.0061.97617-.254367.920155-.139899-.03155-.915714-.244864-1.724029-.474026-2.985557-.846419-5.457465-1.211282-8.206289-1.211282-4.720398 0-7.560428 1.386446-9.139244 4.461605-1.24645 2.427798-1.169274 4.994814.235211 7.823607 1.422661 2.865403 4.155237 5.815996 8.051679 8.694078l1.334284.985564-2.29911-.0057-2.299109-.0057zm8.919633.271955c-1.613337-1.106209-2.96936-2.271605-4.47811-3.848589-2.57979-2.696465-4.050049-5.379797-4.242802-7.743456-.144979-1.777847.400753-3.159433 1.81474-4.59423 1.626568-1.650512 3.418108-2.308571 6.567017-2.412158 2.036054-.06698 3.573967.100425 5.624297.612194l1.215301.303336v9.191694 9.191692l-2.74149-.0013-2.741493-.0013z" stroke-width=".948547"/><path d="m70.44572 33.343673c-2.04006-.693367-3.350163-2.180468-3.934964-4.466583-.310029-1.211951-.265129-3.86452.08474-5.005599.568857-1.855337 2.002723-3.432207 3.678917-4.045804 1.635592-.598738 4.112571-.509535 5.594584.201486 1.200592.575996 2.317058 2.012438 2.652956 3.413284l.09754.406817h-.990999c-.965545 0-.993268-.01076-1.079347-.421647-.127784-.609871-1.018616-1.650942-1.700049-1.986777-.820761-.404494-2.329669-.495581-3.380292-.204052-2.199563.610331-3.426361 2.913901-3.196743 6.002543.150607 2.025896.938943 3.528427 2.230269 4.250758 1.034291.57856 2.760678.664409 3.905749.194224 1.009014-.414316 1.786661-1.328942 2.159403-2.539777l.263748-.856789.979117-.00015c.859204-.000144.969477.03153.900401.258684-.04326.142389-.159882.558087-.259092.923764-.427763 1.576688-1.523233 2.8612-3.053246 3.580154-.923014.433726-1.189632.487968-2.587881.526497-1.210308.03335-1.739056-.01828-2.364811-.230976zm-31.900294-.287403c.05872-.142387 1.152548-2.921728 2.430708-6.176312 1.27816-3.254586 2.455608-6.203449 2.616554-6.553032l.292634-.635609 1.030048.0439 1.030051.04383 2.44218 6.435203c1.343202 3.539363 2.492044 6.588155 2.552981 6.775095.10887.334039.09289.33913-.929614.295868l-1.040404-.04402-.713772-1.960152-.713765-1.960143h-2.800795-2.800788l-.748818 1.997128-.748818 1.997134h-1.00258c-.892189 0-.990821-.02851-.895802-.25889zm7.381197-8.161571c-.562556-1.539389-1.057875-2.832147-1.100712-2.872786-.04287-.04062-.572697 1.21886-1.177469 2.798901l-1.099574 2.872795h2.200294 2.200291zm9.196813 1.658883 2.676783-6.774536 1.034841-.04383 1.034838-.04383.21333.487657c.117326.268216 1.224631 3.150498 2.460676 6.405084 1.236045 3.254584 2.321772 6.1005 2.412727 6.324253l.16537.406824h-1.068622-1.068618l-.266117-.776668c-.146354-.427161-.472972-1.327344-.725801-2.000408l-.459685-1.223745-2.801677.04025-2.801672.04026-.730638 1.92316-.730628 1.923167-1.010941.04346-1.01094.04347zm5.795738 1.008922c-.02843-.07209-.502943-1.368873-1.054512-2.881711-.551568-1.512832-1.048053-2.702044-1.103299-2.64269-.05524.05933-.537694 1.272907-1.072112 2.696788-.534416 1.423879-1.00438 2.672086-1.044361 2.773793-.05605.142508.431722.184925 2.126623.184925 1.213471 0 2.176168-.05879 2.147661-.131101z" stroke-width="1.032948"/></g></svg>