<svg height="80" width="80" xmlns="http://www.w3.org/2000/svg"><path d="m8.2649742 65.250207h42.1915188v-5.53606h-42.1915188zm0-22.144228h42.1915188v-5.53606h-42.1915188zm64.6057608 19.3762q0-1.73002-1.153674-2.941036-1.153674-1.211011-2.801779-1.211011-1.648105 0-2.80178 1.211011-1.153674 1.211016-1.153674 2.941036 0 1.730017 1.153674 2.941031 1.153675 1.211008 2.80178 1.211008 1.648105 0 2.801779-1.211008 1.153674-1.211014 1.153674-2.941031zm-64.6057608-41.520431h42.1915188v-5.536058h-42.1915188zm64.6057608 19.376199q0-1.730018-1.153674-2.941032-1.153674-1.211011-2.801779-1.211011-1.648105 0-2.80178 1.211011-1.153674 1.211014-1.153674 2.941032 0 1.730016 1.153674 2.941032 1.153675 1.211014 2.80178 1.211014 1.648105 0 2.801779-1.211014 1.153674-1.211016 1.153674-2.941032zm0-22.144229q0-1.730017-1.153674-2.941028-1.153674-1.211011-2.801779-1.211011-1.648105 0-2.80178 1.211011-1.153674 1.211011-1.153674 2.941028 0 1.730017 1.153674 2.941031 1.153675 1.211016 2.80178 1.211016 1.648105 0 2.801779-1.211016 1.153674-1.211014 1.153674-2.941031zm3.955454 35.984371v16.608173h-73.835155v-16.608173zm0-22.144225v16.60817h-73.835155v-16.60817zm0-22.1442293v16.6081713h-73.835155v-16.6081713z" fill="#bababa" stroke-width=".042214"/></svg>