<svg height="35" viewBox="0 0 70 35" width="70" xmlns="http://www.w3.org/2000/svg"><rect fill="none" height="31.96426" ry="15.98213" stroke="#bababa" stroke-linejoin="round" stroke-width="3.035741" width="66.964256" x="1.547985" y="1.600116"/><g fill="#bababa"><text fill-opacity=".941176" x="24.269341" y="29.382095"><tspan x="24.269341" y="58.206238"/></text><g><path d="m11.350208 25.994797v-15.270834h3.083333v15.270834z"/><path d="m17.391875 25.994797v-15.270834h3l6.25 10.197917v-10.197917h2.864583v15.270834h-3.09375l-6.15625-9.958334v9.958334z"/><path d="m32.798125 25.994797v-15.270834h10.46875v2.583333h-7.385417v3.614584h6.375001v2.583333h-6.375001v6.489584z"/><path d="m45.193958 18.45313q0-2.333334.697916-3.916667.520834-1.166667 1.416667-2.09375.90625-.927083 1.979167-1.375 1.427083-.604167 3.291667-.604167 3.375 0 5.395833 2.09375 2.03125 2.09375 2.03125 5.822917 0 3.697917-2.010417 5.791667-2.010416 2.083333-5.375 2.083333-3.40625 0-5.416667-2.072916-2.010416-2.083334-2.010416-5.729167zm3.177083-.104167q0 2.59375 1.197917 3.9375 1.197917 1.333334 3.041667 1.333334 1.84375 0 3.020833-1.322917 1.1875-1.333333 1.1875-3.989583 0-2.625001-1.15625-3.916667-1.145833-1.291667-3.052083-1.291667-1.90625 0-3.072917 1.3125-1.166667 1.302083-1.166667 3.9375z"/></g></g></svg>