<svg height="35" viewBox="0 0 70 35" width="70" xmlns="http://www.w3.org/2000/svg"><path d="m17.530115 1.6001163h34.999997c8.8541 0 15.98213 7.12803 15.98213 15.9821297 0 8.8541-7.12803 15.98213-15.98213 15.98213h-34.999997c-8.8540996 0-15.9821296-7.12803-15.9821296-15.98213 0-8.8540997 7.12803-15.9821297 15.9821296-15.9821297z" fill="none" stroke="#bababa" stroke-linejoin="round" stroke-width="3.035741"/><g fill="#bababa"><text fill-opacity=".941176" x="24.269341" y="29.382095"><tspan x="24.269341" y="58.206238"/></text><g><path d="m8.8270038 24.580584v-13.361979h4.0377602l2.424479 9.114583 2.397135-9.114583h4.046875v13.361979h-2.50651v-10.518229l-2.652344 10.518229h-2.597656l-2.643229-10.518229v10.518229z"/><path d="m24.43117 24.580584v-13.361979h9.907552v2.260416h-7.209635v2.96224h6.708333v2.251302h-6.708333v3.636719h7.464843v2.251302z"/><path d="m36.927263 24.580584v-13.361979h2.625l5.46875 8.923177v-8.923177h2.50651v13.361979h-2.707031l-5.386719-8.713542v8.713542z"/><path d="m50.371272 11.218605h2.697917v7.236979q0 1.722656.10026 2.233073.173177.820312.820313 1.321614.656249.492188 1.786458.492188 1.148437 0 1.731771-.464844.583333-.473958.701822-1.157552.11849-.683594.11849-2.269531v-7.391927h2.697917v7.018229q0 2.40625-.21875 3.399739-.21875.99349-.811198 1.677084-.583334.683593-1.567709 1.093749-.984375.401042-2.570312.401042-1.914062 0-2.907552-.4375-.984375-.446614-1.558594-1.148437-.574218-.710938-.75651-1.485677-.264323-1.148438-.264323-3.390625z"/></g></g></svg>