<svg height="35" viewBox="0 0 70 35" width="70" xmlns="http://www.w3.org/2000/svg"><rect fill="none" height="31.96426" ry="15.98213" stroke="#bababa" stroke-linejoin="round" stroke-width="3.035741" width="66.964256" x="1.547985" y="1.600116"/><g fill="#bababa"><text fill-opacity=".941176" x="24.269341" y="29.382095"><tspan x="24.269341" y="58.206238"/></text><g><path d="m11.54958 26.436739v-17.1796875h5.566406q3.164062 0 4.125.2578125 1.476562.3867187 2.472656 1.6875.996094 1.289062.996094 3.339844 0 1.582031-.574219 2.660156-.574219 1.078125-1.464844 1.699219-.878906.609375-1.792968.808593-1.242188.246094-3.597657.246094h-2.261718v6.480469zm3.46875-14.273438v4.875h1.898437q2.050781 0 2.742188-.269531.691406-.269531 1.078125-.84375.398437-.574219.398437-1.335937 0-.9375-.550781-1.546875-.550781-.609375-1.394531-.761719-.621094-.117188-2.496094-.117188z"/><path d="m31.963642 26.436739-6.140625-17.1796875h3.761719l4.347656 12.7148435 4.207031-12.7148435h3.679688l-6.152344 17.1796875z"/><path d="m43.623798 26.436739v-17.1796875h7.300782q2.753906 0 3.996093.46875 1.253907.4570315 2.003907 1.6406245.75 1.183594.75 2.707032 0 1.933593-1.136719 3.199218-1.136719 1.253907-3.398438 1.582032 1.125.65625 1.851563 1.441406.738281.785156 1.980469 2.789062l2.097656 3.351563h-4.148438l-2.507812-3.738281q-1.335938-2.003907-1.828125-2.519532-.492188-.527343-1.042969-.714843-.550781-.199219-1.746094-.199219h-.703125v7.171875zm3.46875-9.914063h2.566407q2.496093 0 3.117187-.210937.621094-.210938.972656-.726563.351563-.515625.351563-1.289062 0-.867188-.46875-1.394531-.457031-.539063-1.300781-.679688-.421875-.05859-2.53125-.05859h-2.707032z"/></g></g></svg>