<svg height="35" viewBox="0 0 70 35" width="70" xmlns="http://www.w3.org/2000/svg"><rect fill="none" height="31.96426" ry="15.98213" stroke="#bababa" stroke-linejoin="round" stroke-width="3.035741" width="66.964256" x="1.547985" y="1.600116"/><g fill="#bababa"><text fill-opacity=".941176" x="24.269341" y="29.382095"><tspan x="24.269341" y="58.206238"/></text><g><path d="m12.936914 25.906408v-12.6875h-4.5312497v-2.583333h12.1354167v2.583333h-4.520833v12.6875z"/><path d="m22.541081 25.906408v-15.270833h11.322917v2.583333h-8.239583v3.385417h7.666667v2.572916h-7.666667v4.156251h8.53125v2.572916z"/><path d="m35.238999 25.906408 5.21875-7.96875-4.729167-7.302083h3.604167l3.0625 4.90625 3-4.90625h3.572917l-4.75 7.416666 5.21875 7.854167h-3.71875l-3.385417-5.28125-3.395833 5.28125z"/><path d="m54.478582 25.906408v-12.6875h-4.53125v-2.583333h12.135417v2.583333h-4.520833v12.6875z"/></g></g></svg>