<svg height="60" viewBox="0 0 60 60" width="60" xmlns="http://www.w3.org/2000/svg"><g stroke="#bababa" stroke-width="19.52" transform="matrix(.1142818 0 0 .114359 2.044753 -59.753991)"><path d="m-556.21497-262.79791a228.95862 249.55898 0 0 1 -228.909 249.558967 228.95862 249.55898 0 0 1 -229.00823-249.450827" fill="#f00" stroke="none" transform="matrix(0 -1 -1 0 0 0)"/><path d="m-550.21179 230.90125a228.95862 249.55898 0 0 1 -228.90901 249.55896 228.95862 249.55898 0 0 1 -229.0082-249.45082" fill="#f00" stroke="none" transform="rotate(-90)"/><g stroke="#000"><path d="m416.4 611.96c-46.2-46.2-107.4-71.6-172.4-71.6s-126.2 25.4-172.4 71.6-71.6 107.4-71.6 172.4 25.4 126.2 71.6 172.4 107.4 71.6 172.4 71.6 126.2-25.4 172.4-71.6 71.6-107.4 71.6-172.4-25.4-126.2-71.6-172.4zm-162.4 396.2v-40.8c0-5.5-4.5-10-10-10s-10 4.5-10 10v40.8c-115.6-5.1-208.7-98.2-213.8-213.8h40.8c5.5 0 10-4.5 10-10s-4.5-10-10-10h-40.8c5.1-115.6 98.2-208.7 213.8-213.8v40.8c0 5.5 4.5 10 10 10s10-4.5 10-10v-40.8c115.6 5.1 208.7 98.2 213.8 213.8h-40.8c-5.5 0-10 4.5-10 10s4.5 10 10 10h40.8c-5.1 115.6-98.2 208.7-213.8 213.8z" stroke-width="19.524076"/><path d="m351.1 846.96-97.1-67.9v-116.7c0-5.5-4.5-10-10-10s-10 4.5-10 10v122c0 3.3 1.6 6.3 4.3 8.2l101.4 70.9c1.7 1.2 3.7 1.8 5.7 1.8 3.1 0 6.2-1.5 8.2-4.4 3.1-4.5 2-10.7-2.5-13.9z" stroke-width="19.52"/></g></g></svg>